<svg width="224" height="173" viewBox="0 0 224 173" fill="none" xmlns="http://www.w3.org/2000/svg">
<g opacity="0.9">
<path d="M196.37 140.648L23.837 135.691C15.8076 135.458 9.20485 129.304 8.40854 121.286L0.0804874 38.7809C-0.848538 29.4326 6.38459 21.2818 15.7412 21.1488L207.784 18.4873C217.472 18.3542 225.071 26.8376 223.876 36.4854L212.695 126.609C211.666 134.793 204.599 140.881 196.37 140.648Z" fill="#F6F5FC"/>
<mask id="mask0_660_2860" style="mask-type:alpha" maskUnits="userSpaceOnUse" x="0" y="18" width="224" height="123">
<path d="M196.37 140.648L23.837 135.691C15.8075 135.458 9.20482 129.304 8.40851 121.286L0.0804568 38.7809C-0.848569 29.4326 6.38456 21.2818 15.7412 21.1488L207.784 18.4873C217.472 18.3542 225.071 26.8376 223.876 36.4854L212.695 126.609C211.666 134.793 204.599 140.881 196.37 140.648Z" fill="#EAF9F3"/>
</mask>
<g mask="url(#mask0_660_2860)">
<path d="M144.71 144.574L145.307 158.048C145.307 160.809 143.084 163.038 140.33 163.038H2.43621C-0.317685 163.038 -2.54071 160.809 -2.54071 158.048V79.6343C-2.54071 76.8731 -0.317685 74.6441 2.43621 74.6441H140.297C143.051 74.6441 145.274 76.8731 145.274 79.6343V132.664" stroke="#D3CEF2" stroke-width="0.9" stroke-miterlimit="10" stroke-linecap="round" stroke-linejoin="round"/>
<path d="M175.6 132.997V55.781C175.6 53.0198 177.823 50.7908 180.577 50.7908H221.719C224.473 50.7908 226.696 53.0198 226.696 55.781V170.324C226.696 173.085 224.473 175.314 221.719 175.314H180.577C177.823 175.314 175.6 173.085 175.6 170.324V145.406" stroke="#D3CEF2" stroke-width="0.9" stroke-miterlimit="10" stroke-linecap="round" stroke-linejoin="round"/>
<path d="M28.3494 51.2565H-1.47896V48.2957H28.3494C28.6812 48.2957 28.9466 48.5618 28.9466 48.8945V50.6244C28.9798 50.9571 28.7144 51.2565 28.3494 51.2565Z" stroke="#D3CEF2" stroke-width="0.9" stroke-miterlimit="10" stroke-linecap="round" stroke-linejoin="round"/>
<path d="M23.8038 74.6441H17.0684C16.3384 74.6441 15.7412 74.1118 15.6417 73.3799L15.1108 68.5893C15.0112 67.7576 15.6748 66.9924 16.5375 66.9924H24.3347C25.1973 66.9924 25.8278 67.7243 25.7614 68.5893L25.2305 73.3799C25.1642 74.1118 24.5338 74.6441 23.8038 74.6441Z" stroke="#D3CEF2" stroke-width="0.9" stroke-miterlimit="10" stroke-linecap="round" stroke-linejoin="round"/>
<path d="M19.6564 67.0257C19.6564 67.0257 17.002 66.7595 16.4711 63.1666C16.4711 63.1666 18.8601 63.8652 19.6232 65.5619C19.6232 65.5619 19.955 61.7693 21.7467 61.4034C21.7467 61.4034 22.543 64.2312 21.2822 65.6284C21.2822 65.6284 22.2444 64.0315 24.6996 64.0648C24.6996 64.0648 24.0692 66.3271 21.6471 66.9924" fill="#D3CEF2"/>
<path d="M204.997 50.7908H198.262C197.532 50.7908 196.934 50.2585 196.835 49.5266L196.304 44.736C196.204 43.9043 196.868 43.1391 197.731 43.1391H205.528C206.391 43.1391 207.021 43.871 206.955 44.736L206.424 49.5266C206.324 50.2585 205.727 50.7908 204.997 50.7908Z" stroke="#D3CEF2" stroke-width="0.9" stroke-miterlimit="10" stroke-linecap="round" stroke-linejoin="round"/>
<path d="M200.816 43.1724C200.816 43.1724 198.162 42.9062 197.631 39.3132C197.631 39.3132 200.02 40.0119 200.783 41.7085C200.783 41.7085 201.115 37.916 202.907 37.55C202.907 37.55 203.703 40.3778 202.442 41.7751C202.442 41.7751 203.404 40.1782 205.86 40.2115C205.86 40.2115 205.229 42.4737 202.807 43.1391" fill="#D3CEF2"/>
<path d="M139.268 91.1784H109.341C108.577 91.1784 107.947 90.5463 107.947 89.7812V80.6657C107.947 79.9005 108.577 79.2684 109.341 79.2684H139.268C140.032 79.2684 140.662 79.9005 140.662 80.6657V89.7812C140.662 90.5463 140.032 91.1784 139.268 91.1784Z" stroke="#D3CEF2" stroke-width="0.9" stroke-miterlimit="10" stroke-linecap="round" stroke-linejoin="round"/>
<path d="M127.722 82.4954H120.821C120.555 82.4954 120.323 82.2625 120.323 81.9964C120.323 81.7302 120.555 81.4974 120.821 81.4974H127.722C127.987 81.4974 128.22 81.7302 128.22 81.9964C128.22 82.2625 128.021 82.4954 127.722 82.4954Z" fill="#D3CEF2"/>
<path d="M139.268 106.449H109.341C108.577 106.449 107.947 105.816 107.947 105.051V95.9358C107.947 95.1706 108.577 94.5385 109.341 94.5385H139.268C140.032 94.5385 140.662 95.1706 140.662 95.9358V105.051C140.662 105.816 140.032 106.449 139.268 106.449Z" stroke="#D3CEF2" stroke-width="0.9" stroke-miterlimit="10" stroke-linecap="round" stroke-linejoin="round"/>
<path d="M127.722 97.7323H120.821C120.555 97.7323 120.323 97.4994 120.323 97.2332C120.323 96.9671 120.555 96.7342 120.821 96.7342H127.722C127.987 96.7342 128.22 96.9671 128.22 97.2332C128.22 97.4994 128.021 97.7323 127.722 97.7323Z" fill="#D3CEF2"/>
<path d="M101.112 91.1784H71.1841C70.421 91.1784 69.7906 90.5463 69.7906 89.7812V80.6657C69.7906 79.9005 70.421 79.2684 71.1841 79.2684H101.112C101.875 79.2684 102.506 79.9005 102.506 80.6657V89.7812C102.506 90.5463 101.875 91.1784 101.112 91.1784Z" stroke="#D3CEF2" stroke-width="0.9" stroke-miterlimit="10" stroke-linecap="round" stroke-linejoin="round"/>
<path d="M89.5987 82.4954H82.6974C82.432 82.4954 82.1997 82.2625 82.1997 81.9964C82.1997 81.7302 82.432 81.4974 82.6974 81.4974H89.5987C89.8642 81.4974 90.0964 81.7302 90.0964 81.9964C90.0964 82.2625 89.8642 82.4954 89.5987 82.4954Z" fill="#D3CEF2"/>
<path d="M101.112 106.449H71.1841C70.421 106.449 69.7906 105.816 69.7906 105.051V95.9358C69.7906 95.1706 70.421 94.5385 71.1841 94.5385H101.112C101.875 94.5385 102.506 95.1706 102.506 95.9358V105.051C102.506 105.816 101.875 106.449 101.112 106.449Z" stroke="#D3CEF2" stroke-width="0.9" stroke-miterlimit="10" stroke-linecap="round" stroke-linejoin="round"/>
<path d="M89.5987 97.7323H82.6974C82.432 97.7323 82.1997 97.4994 82.1997 97.2332C82.1997 96.9671 82.432 96.7342 82.6974 96.7342H89.5987C89.8642 96.7342 90.0964 96.9671 90.0964 97.2332C90.0964 97.4994 89.8642 97.7323 89.5987 97.7323Z" fill="#D3CEF2"/>
<path d="M139.268 121.353H109.341C108.577 121.353 107.947 120.721 107.947 119.955V110.84C107.947 110.075 108.577 109.443 109.341 109.443H139.268C140.032 109.443 140.662 110.075 140.662 110.84V119.955C140.662 120.721 140.032 121.353 139.268 121.353Z" stroke="#D3CEF2" stroke-width="0.9" stroke-miterlimit="10" stroke-linecap="round" stroke-linejoin="round"/>
<path d="M127.722 112.67H120.821C120.555 112.67 120.323 112.437 120.323 112.171C120.323 111.905 120.555 111.672 120.821 111.672H127.722C127.987 111.672 128.22 111.905 128.22 112.171C128.22 112.437 128.021 112.67 127.722 112.67Z" fill="#D3CEF2"/>
<path d="M101.112 121.353H71.1841C70.421 121.353 69.7906 120.721 69.7906 119.955V110.84C69.7906 110.075 70.421 109.443 71.1841 109.443H101.112C101.875 109.443 102.506 110.075 102.506 110.84V119.955C102.506 120.721 101.875 121.353 101.112 121.353Z" stroke="#D3CEF2" stroke-width="0.9" stroke-miterlimit="10" stroke-linecap="round" stroke-linejoin="round"/>
<path d="M89.5987 112.67H82.6974C82.432 112.67 82.1997 112.437 82.1997 112.171C82.1997 111.905 82.432 111.672 82.6974 111.672H89.5987C89.8642 111.672 90.0964 111.905 90.0964 112.171C90.0964 112.437 89.8642 112.67 89.5987 112.67Z" fill="#D3CEF2"/>
<path d="M235.721 85.6559H182.667C181.838 85.6559 181.141 84.9573 181.141 84.1256V57.6108C181.141 56.7791 181.838 56.0804 182.667 56.0804H235.721C236.551 56.0804 237.247 56.7791 237.247 57.6108V84.1256C237.247 84.9905 236.584 85.6559 235.721 85.6559Z" stroke="#D3CEF2" stroke-width="0.9" stroke-miterlimit="10" stroke-linecap="round" stroke-linejoin="round"/>
<path d="M235.721 118.591H182.667C181.838 118.591 181.141 117.893 181.141 117.061V90.5463C181.141 89.7146 181.838 89.016 182.667 89.016H235.721C236.551 89.016 237.247 89.7146 237.247 90.5463V117.061C237.247 117.893 236.584 118.591 235.721 118.591Z" stroke="#D3CEF2" stroke-width="0.9" stroke-miterlimit="10" stroke-linecap="round" stroke-linejoin="round"/>
<path d="M194.612 68.922H191.327V85.6559H194.612V68.922Z" stroke="#D3CEF2" stroke-width="0.9" stroke-miterlimit="10" stroke-linecap="round" stroke-linejoin="round"/>
<path d="M197.996 73.513H194.579V85.6892H197.996V73.513Z" stroke="#D3CEF2" stroke-width="0.9" stroke-miterlimit="10" stroke-linecap="round" stroke-linejoin="round"/>
<path d="M16.3384 31.5617H13.0536V48.2957H16.3384V31.5617Z" stroke="#D3CEF2" stroke-width="0.9" stroke-miterlimit="10" stroke-linecap="round" stroke-linejoin="round"/>
<path d="M19.7227 36.1195H16.3052V48.2957H19.7227V36.1195Z" stroke="#D3CEF2" stroke-width="0.9" stroke-miterlimit="10" stroke-linecap="round" stroke-linejoin="round"/>
<path d="M9.63616 38.5148H6.35139V48.2957H9.63616V38.5148Z" stroke="#D3CEF2" stroke-width="0.9" stroke-miterlimit="10" stroke-linecap="round" stroke-linejoin="round"/>
<path d="M13.0536 28.7007H9.63616V48.2624H13.0536V28.7007Z" stroke="#D3CEF2" stroke-width="0.9" stroke-miterlimit="10" stroke-linecap="round" stroke-linejoin="round"/>
<path d="M192.555 104.053L192.92 99.0963C192.953 98.7636 192.687 98.4974 192.356 98.4974H190.962H189.535C189.204 98.4974 188.971 98.7636 188.971 99.0963L189.336 104.053C189.336 104.053 186.35 105.983 186.383 107.58C186.416 108.811 187.146 114.699 187.478 117.294C187.578 118.026 188.175 118.558 188.905 118.558H190.962H193.019C193.749 118.558 194.346 118.026 194.446 117.294C194.778 114.699 195.508 108.811 195.541 107.58C195.541 105.983 192.555 104.053 192.555 104.053Z" fill="#D3CEF2"/>
<path d="M208.547 71.1509L208.912 66.194C208.945 65.8613 208.68 65.5951 208.348 65.5951H206.921H205.495C205.163 65.5951 204.931 65.8613 204.931 66.194L205.296 71.1509C205.296 71.1509 202.309 73.0805 202.343 74.6774C202.376 75.9083 203.106 81.7968 203.438 84.3917C203.537 85.1236 204.134 85.6559 204.864 85.6559H206.921H208.979C209.708 85.6559 210.306 85.1236 210.405 84.3917C210.737 81.7968 211.467 75.9083 211.5 74.6774C211.533 73.0805 208.547 71.1509 208.547 71.1509Z" fill="#D3CEF2"/>
<path d="M1.97169 131.1L235.223 133.662" stroke="#D3CEF2" stroke-width="0.9" stroke-miterlimit="10" stroke-linecap="round" stroke-linejoin="round"/>
</g>
<path d="M124.769 12.6986C123.475 15.4599 120.489 17.2897 118.399 16.7241C116.574 16.2251 116.242 14.0626 117.403 11.9002C118.531 9.83758 120.787 8.17417 122.745 8.1409C124.902 8.07436 125.963 10.0705 124.769 12.6986Z" fill="#F8AB5D"/>
<path d="M124.139 12.1331C122.845 14.8943 119.858 16.7241 117.768 16.1585C115.943 15.6595 115.611 13.4971 116.773 11.3346C117.901 9.27201 120.157 7.6086 122.115 7.57533C124.271 7.50879 125.333 9.50489 124.139 12.1331Z" fill="#E4C0A8"/>
<path d="M123.077 12C122.115 14.0626 119.858 15.4599 118.266 15.0939C116.839 14.7613 116.507 13.0979 117.403 11.4012C118.266 9.77103 120.091 8.47357 121.584 8.47357C123.276 8.50684 124.006 10.0372 123.077 12Z" fill="#F8AB5D"/>
<path d="M118.763 13.7632L118.896 13.5303C118.929 13.4305 118.929 13.364 118.863 13.3307C118.697 13.2975 118.564 13.1977 118.498 13.0979C118.465 13.0646 118.465 12.9648 118.531 12.865L118.564 12.8317C118.631 12.7319 118.763 12.6986 118.797 12.7652C118.896 12.865 119.029 12.9648 119.228 12.9981C119.56 13.0646 119.892 12.865 120.057 12.5323C120.223 12.2329 120.124 12 119.858 11.8004C119.493 11.5342 119.361 11.2681 119.593 10.8023C119.792 10.4031 120.157 10.1037 120.588 10.0372C120.655 10.0372 120.721 9.97064 120.787 9.87084L120.92 9.63796C120.953 9.53816 121.053 9.47162 121.152 9.47162C121.219 9.47162 121.252 9.53816 121.219 9.63796L121.119 9.83757C121.086 9.93738 121.086 10.0039 121.186 10.0039C121.318 10.0372 121.418 10.0704 121.484 10.137C121.551 10.1703 121.517 10.2701 121.451 10.3699L121.418 10.4031C121.351 10.5029 121.219 10.5362 121.186 10.4697C121.086 10.4031 120.987 10.3366 120.787 10.3366C120.422 10.3033 120.19 10.5362 120.057 10.7691C119.925 11.0352 120.024 11.2016 120.323 11.4344C120.688 11.7006 120.821 12.0333 120.555 12.5323C120.356 12.9648 119.925 13.2975 119.427 13.364C119.361 13.364 119.261 13.4305 119.228 13.5303L119.095 13.7965C119.062 13.8963 118.929 13.9628 118.863 13.9628C118.73 13.9628 118.697 13.863 118.763 13.7632Z" fill="#E4C0A8"/>
<path d="M185.255 72.149L172.382 71.3506C171.486 71.284 170.822 70.5188 170.888 69.6206L172.846 43.1391C172.912 42.2408 173.642 41.5089 174.571 41.4424L187.744 40.644C188.706 40.5774 189.502 41.4091 189.436 42.3739L187.246 70.4523C187.113 71.4836 186.251 72.2155 185.255 72.149Z" fill="#2A2C30"/>
<path d="M184.359 72.149L171.486 71.3506C170.59 71.284 169.926 70.5188 169.993 69.6206L171.95 43.1391C172.017 42.2408 172.747 41.5089 173.676 41.4424L186.848 40.644C187.81 40.5774 188.606 41.4091 188.54 42.3739L186.35 70.4523C186.217 71.4836 185.355 72.2155 184.359 72.149Z" fill="#2A2C30"/>
<path d="M180.411 43.7379L177.956 43.871C177.757 43.871 177.624 43.7379 177.624 43.5383C177.624 43.3387 177.79 43.1724 177.989 43.1724L180.444 43.0393C180.643 43.0393 180.776 43.1723 180.776 43.372C180.776 43.5716 180.61 43.7379 180.411 43.7379Z" fill="#63737A"/>
<path d="M181.838 43.6714H181.771C181.572 43.6714 181.44 43.5383 181.44 43.3387C181.44 43.1391 181.639 42.9728 181.838 42.9395H181.904C182.103 42.9395 182.236 43.0726 182.236 43.2722C182.203 43.4718 182.037 43.6714 181.838 43.6714Z" fill="#63737A"/>
<path d="M177.989 48.1626L174.704 48.2624C174.372 48.2624 174.107 47.9962 174.14 47.6303C174.173 47.2643 174.472 46.9982 174.804 46.9649L178.088 46.8318C178.42 46.8318 178.686 47.098 178.652 47.464C178.652 47.8299 178.354 48.1293 177.989 48.1626Z" fill="#63737A"/>
<path d="M177.126 59.6069L173.875 59.5736C173.543 59.5736 173.311 59.2742 173.311 58.9415C173.344 58.6088 173.642 58.3094 173.974 58.3094L177.226 58.3427C177.558 58.3427 177.823 58.6421 177.79 58.9748C177.757 59.3407 177.458 59.6069 177.126 59.6069Z" fill="#63737A"/>
<path d="M176.429 68.8554L173.178 68.6891C172.846 68.6891 172.614 68.3897 172.614 68.0237C172.647 67.691 172.912 67.3916 173.244 67.4249L176.496 67.558C176.828 67.558 177.093 67.8574 177.06 68.2233C177.06 68.5893 176.761 68.8554 176.429 68.8554Z" fill="#63737A"/>
<path d="M183.994 55.5149L174.306 55.5481C173.908 55.5481 173.576 55.2155 173.609 54.783L173.908 50.5579C173.941 50.192 174.24 49.9258 174.571 49.9258L184.293 49.6597C184.691 49.6597 185.023 49.9923 184.99 50.4248L184.658 54.8495C184.658 55.2155 184.359 55.5149 183.994 55.5149Z" fill="#D3CEF2"/>
<path d="M176.894 65.2957L173.576 65.1627C173.178 65.1627 172.879 64.7967 172.912 64.3975L173.112 61.8691C173.145 61.5032 173.443 61.2037 173.808 61.237L177.159 61.3035C177.558 61.3035 177.856 61.6695 177.856 62.0687L177.657 64.6636C177.591 65.0296 177.292 65.2957 176.894 65.2957Z" fill="#E4C0A8"/>
<path d="M183.198 65.4953L179.648 65.3623C179.25 65.3623 178.951 64.9963 178.984 64.5971L179.183 61.9689C179.217 61.603 179.515 61.3035 179.88 61.3368L183.464 61.4034C183.862 61.4034 184.16 61.7693 184.16 62.1685L183.961 64.8632C183.895 65.2292 183.563 65.5286 183.198 65.4953Z" fill="#F4C2C9"/>
<path d="M103.766 31.1958L92.983 31.6948C92.1204 31.7281 91.5231 31.0294 91.6227 30.1312L93.4144 12.1664C93.5139 11.2348 94.277 10.4031 95.1397 10.3033L106.122 8.87279C107.084 8.73972 107.748 9.43835 107.648 10.4031L105.624 29.3993C105.558 30.3308 104.695 31.1292 103.766 31.1958Z" fill="#2A2C30"/>
<path d="M102.97 30.8298L92.1867 31.3289C91.324 31.3621 90.7268 30.6635 90.8264 29.7652L92.6181 11.8004C92.7176 10.8689 93.4807 10.0372 94.3434 9.93737L105.326 8.50684C106.288 8.37377 106.952 9.0724 106.852 10.0372L104.828 29.0333C104.729 29.9981 103.899 30.7966 102.97 30.8298Z" fill="#2A2C30"/>
<path d="M103.468 14.5617L95.0733 15.4599C94.8079 15.4932 94.5756 15.2603 94.6088 14.9941L94.8079 12.9315C94.8411 12.7319 94.9738 12.5656 95.1729 12.5656L103.6 11.5675C103.866 11.5342 104.098 11.7671 104.065 12.0333L103.833 14.1957C103.833 14.3953 103.667 14.5617 103.468 14.5617Z" fill="#F4C2C9"/>
<path d="M95.6706 20.2838L94.5757 20.3836C94.3102 20.4169 94.078 20.184 94.1111 19.9179L94.2439 18.7202C94.277 18.5206 94.4098 18.3543 94.6088 18.3543L95.7038 18.2544C95.9692 18.2212 96.2014 18.4541 96.1683 18.7202L96.0355 19.9179C96.0355 20.1175 95.8696 20.2505 95.6706 20.2838Z" fill="#D3CEF2"/>
<path d="M102.937 19.6517L101.742 19.7515C101.477 19.7848 101.245 19.5519 101.278 19.2858L101.411 18.0216C101.444 17.822 101.577 17.6556 101.776 17.6556L102.97 17.5225C103.235 17.4893 103.468 17.7222 103.435 17.9883L103.302 19.2525C103.302 19.4521 103.136 19.6184 102.937 19.6517Z" fill="#D3CEF2"/>
<path d="M99.254 19.9511L98.1259 20.0509C97.8604 20.0842 97.6282 19.8513 97.6613 19.5852L97.7941 18.3542C97.8272 18.1546 97.96 17.9883 98.159 17.9883L99.2871 17.8885C99.5526 17.8552 99.7848 18.0881 99.7517 18.3542L99.6189 19.5852C99.6189 19.7848 99.453 19.9511 99.254 19.9511Z" fill="#D3CEF2"/>
<path d="M95.2392 24.3758L94.1443 24.4423C93.8789 24.4756 93.6798 24.2427 93.6798 23.9766L93.8125 22.7789C93.8457 22.5793 94.0116 22.413 94.2107 22.413L95.3056 22.3132C95.571 22.2799 95.8033 22.5128 95.7701 22.7789L95.6374 23.9766C95.6042 24.2095 95.4383 24.3758 95.2392 24.3758Z" fill="#D3CEF2"/>
<path d="M102.506 23.8768L101.311 23.9766C101.046 24.0098 100.847 23.777 100.847 23.5108L100.979 22.2799C101.012 22.0803 101.178 21.9139 101.377 21.9139L102.572 21.8141C102.837 21.7809 103.07 22.0137 103.036 22.2799L102.904 23.5441C102.871 23.6772 102.705 23.8435 102.506 23.8768Z" fill="#D3CEF2"/>
<path d="M98.8226 24.1429L97.6945 24.2095C97.4291 24.2427 97.23 24.0098 97.23 23.7437L97.3627 22.5128C97.3959 22.3132 97.5618 22.1468 97.7609 22.1468L98.889 22.047C99.1544 22.0137 99.3867 22.2466 99.3535 22.5128L99.2208 23.7437C99.1876 23.9433 99.0217 24.1096 98.8226 24.1429Z" fill="#D3CEF2"/>
<path d="M94.8079 28.4678L93.7462 28.5343C93.4807 28.5343 93.2817 28.3347 93.3148 28.0686L93.4476 26.8709C93.4807 26.6713 93.6466 26.505 93.8457 26.505L94.9075 26.4384C95.1729 26.4052 95.372 26.638 95.3388 26.9042L95.2061 28.1018C95.2061 28.3014 95.007 28.4678 94.8079 28.4678Z" fill="#D3CEF2"/>
<path d="M102.041 28.0686L100.847 28.1351C100.581 28.1351 100.382 27.9355 100.415 27.6693L100.548 26.4384C100.581 26.2388 100.747 26.0725 100.946 26.0725L102.141 26.0059C102.406 25.9727 102.605 26.2055 102.572 26.4717L102.439 27.7359C102.406 27.9022 102.24 28.0686 102.041 28.0686Z" fill="#E4C0A8"/>
<path d="M98.3913 28.2682L97.2632 28.3347C96.9978 28.3347 96.7987 28.1351 96.8319 27.869L96.9646 26.6713C96.9978 26.4717 97.1637 26.3054 97.3627 26.3054L98.4908 26.2388C98.7563 26.2056 98.9554 26.4384 98.9222 26.7046L98.7895 27.9355C98.7563 28.1018 98.5904 28.2682 98.3913 28.2682Z" fill="#E4C0A8"/>
<path d="M114.218 30.9962L166.177 25.6067C167.139 25.5069 167.935 26.3053 167.869 27.2701L163.423 77.9709C163.324 79.2351 162.229 80.1666 161.001 80.1001L110.535 77.3721C109.672 77.3388 109.042 76.5737 109.075 75.742L112.128 33.1919C112.227 32.0275 113.09 31.1292 114.218 30.9962Z" fill="#F8AB5D"/>
<path d="M112.327 30.4306L164.883 24.9746C165.845 24.8748 166.675 25.6733 166.575 26.6713L162.096 77.9377C161.996 79.2019 160.901 80.1666 159.641 80.0668L108.577 77.3056C107.715 77.2723 107.051 76.5071 107.117 75.6422L110.203 32.5931C110.336 31.4619 111.199 30.5637 112.327 30.4306Z" fill="#E4C0A8"/>
<path d="M117.768 41.4757L115.379 41.6088L115.081 46.0667L117.436 46.0002L117.768 41.4757Z" fill="#A79DE4"/>
<path d="M115.081 46.0667L114.915 48.2624L117.27 48.1959L117.436 46.0002L115.081 46.0667Z" fill="#D3CEF2"/>
<path d="M122.911 35.4209L120.522 35.5872L120.124 41.3426L122.48 41.2428L122.911 35.4209Z" fill="#A79DE4"/>
<path d="M120.124 41.3426L119.626 48.1293L121.982 48.0628L122.48 41.2428L120.124 41.3426Z" fill="#D3CEF2"/>
<path d="M125.101 37.5167L124.835 41.1097L127.191 40.9766L127.457 37.3504L125.101 37.5167Z" fill="#A79DE4"/>
<path d="M124.835 41.1097L124.338 48.0295L126.693 47.963L127.191 40.9767L124.835 41.1097Z" fill="#D3CEF2"/>
<path d="M131.903 40.7105L129.547 40.8436L129.381 43.372L131.737 43.2389L131.903 40.7105Z" fill="#A79DE4"/>
<path d="M129.381 43.372L129.049 47.8964L131.405 47.8299L131.737 43.2389L129.381 43.372Z" fill="#D3CEF2"/>
<path d="M136.913 36.685L136.614 40.4776L136.448 42.9727L134.092 43.1058L134.258 40.5774L134.557 36.8514L136.913 36.685Z" fill="#A79DE4"/>
<path d="M134.092 43.1058L133.727 47.7634L136.083 47.7301L136.448 42.9727L134.092 43.1058Z" fill="#D3CEF2"/>
<path d="M155.858 33.957L151.644 40.644L147.961 35.6205C149.421 34.4228 151.18 33.6576 153.005 33.5246C154.066 33.458 155.029 33.6244 155.858 33.957Z" fill="#2A2C30"/>
<path d="M159.143 40.1117L151.644 40.644L155.858 33.957C158.181 34.8886 159.541 37.2173 159.143 40.1117Z" fill="#F4C2C9"/>
<path d="M159.143 40.1117C159.143 40.2115 159.11 40.3113 159.11 40.4111C158.413 44.37 154.73 47.6636 150.848 47.963L151.644 40.644L159.143 40.1117Z" fill="#D3CEF2"/>
<path d="M151.644 40.644L150.848 47.963C150.649 47.9963 150.417 47.9962 150.218 47.9962C146.269 47.9962 143.847 44.7692 144.677 40.8768C145.108 38.8475 146.336 36.9845 147.961 35.6537L151.644 40.644Z" fill="white"/>
<path d="M158.081 53.6518L156.356 70.5188L112.99 69.7204L113.057 68.4229L122.446 61.9356C122.878 61.6362 123.442 61.6362 123.873 61.9689L127.39 64.5638C127.921 64.963 128.717 64.8632 129.115 64.2977L132.599 59.6401C133.097 58.9748 134.092 58.9748 134.59 59.6734L137.676 63.965C138.074 64.5306 138.87 64.6636 139.434 64.2311C139.866 63.8985 140.463 63.8985 140.894 64.1979L143.084 65.7615C143.648 66.1607 144.444 66.0276 144.843 65.4288L149.753 57.8436C150.151 57.2448 150.948 57.1117 151.512 57.511L152.938 58.5423C153.502 58.9415 154.266 58.8417 154.664 58.2761L158.081 53.6518Z" fill="#A79DE4"/>
<path d="M126.527 59.008H124.636C124.537 59.008 124.47 59.0413 124.404 59.1078L123.973 59.5403C123.84 59.6734 123.608 59.6734 123.508 59.5403L123.176 59.1078C123.11 59.0413 123.044 59.008 122.944 59.008H121.119C120.953 59.008 120.821 58.875 120.854 58.7086L121.119 55.1156C121.119 54.9493 121.285 54.783 121.451 54.783L126.859 54.5834C127.025 54.5834 127.158 54.7164 127.158 54.8828L126.859 58.6421C126.859 58.8417 126.727 59.008 126.527 59.008Z" fill="white"/>
<path d="M144.245 60.8045L142.354 60.7712C142.255 60.7712 142.188 60.8045 142.122 60.871L141.691 61.3035C141.558 61.4366 141.359 61.4366 141.226 61.2703L140.894 60.8378C140.828 60.7712 140.761 60.738 140.662 60.738L138.87 60.7047C138.704 60.7047 138.605 60.5716 138.605 60.372L138.87 56.7458C138.87 56.5794 139.036 56.4131 139.169 56.4131L144.577 56.28C144.743 56.28 144.876 56.4131 144.876 56.6127L144.577 60.4718C144.577 60.6714 144.411 60.8378 144.245 60.8045Z" fill="#F4C2C9"/>
<path d="M53.3667 156.783C53.234 157.216 52.9354 158.946 52.7031 160.543C48.7548 161.208 45.3705 159.644 45.3705 159.644C45.5364 157.981 45.7023 156.251 45.7023 156.251C45.7023 155.32 53.6321 155.985 53.3667 156.783Z" fill="#2A2C30"/>
<path d="M52.7031 160.509C52.504 161.907 52.305 163.138 52.305 163.138C52.305 163.138 51.4091 165.234 49.1529 165.234C46.8635 165.234 45.0718 163.337 45.105 162.539C45.1382 162.173 45.2377 160.909 45.3705 159.611C45.3705 159.611 48.7216 161.175 52.7031 160.509Z" fill="#F4C2C9"/>
<path d="M45.1382 161.907C45.1382 161.907 45.7686 162.605 46.1668 162.938C46.5317 163.271 47.6598 162.239 49.2525 162.439C50.8451 162.639 51.3428 163.271 51.3428 163.271C51.3428 163.271 52.0064 163.138 52.3713 162.838C52.3713 162.838 52.3713 163.969 52.869 165.267C53.3667 166.564 55.8884 170.357 55.8884 171.089C55.8884 171.821 55.7225 172.386 55.1916 172.619C54.6607 172.852 51.1437 172.885 48.1907 172.952C45.2377 173.018 42.9484 173.185 42.6166 172.02C42.2848 170.856 43.6451 167.23 44.2092 165.001C44.7732 162.738 44.6737 161.94 45.1382 161.907Z" fill="#2A2C30"/>
<path d="M45.6359 168.061C45.6359 168.061 49.1861 166.165 52.5704 168.061" stroke="white" stroke-width="0.9" stroke-miterlimit="10" stroke-linecap="round" stroke-linejoin="round"/>
<path d="M46.2995 166.198C46.2995 166.198 49.0534 165.3 51.94 166.198" stroke="white" stroke-width="0.9" stroke-miterlimit="10" stroke-linecap="round" stroke-linejoin="round"/>
<path d="M87.807 159.079C84.0246 160.376 80.1094 159.578 80.1426 159.611C80.0098 157.748 79.8439 155.785 79.8439 155.785C80.3416 154.621 87.4752 154.089 87.5416 154.588C87.5416 154.854 87.6743 157.05 87.807 159.079Z" fill="#2A2C30"/>
<path d="M88.0061 162.605C88.0061 162.605 87.5084 164.169 85.3517 164.967C83.1951 165.766 80.4412 163.603 80.408 162.971C80.3748 162.705 80.2753 161.175 80.1426 159.611C80.1426 159.578 84.0246 160.376 87.807 159.079C87.9066 160.909 88.0061 162.605 88.0061 162.605Z" fill="#F4C2C9"/>
<path d="M80.3416 162.506C80.1094 162.506 79.9435 162.838 79.8108 164.934C79.678 167.03 79.0145 171.654 79.8108 172.353C80.6071 173.052 96.5 172.852 98.3249 172.719C100.15 172.586 101.145 171.388 100.581 170.59C100.017 169.791 96.1019 168.327 92.6512 165.999C89.2006 163.67 88.3711 163.171 87.9729 162.605C87.9729 162.605 88.172 160.709 87.1434 161.008C86.1149 161.308 85.4181 163.77 84.0909 164.102C82.7969 164.402 82.5978 162.372 80.3416 162.506Z" fill="#2A2C30"/>
<path d="M93.4144 166.065C93.4144 166.065 92.5185 165.799 90.4946 167.962" stroke="white" stroke-width="0.9" stroke-miterlimit="10" stroke-linecap="round" stroke-linejoin="round"/>
<path d="M91.2245 164.635C91.2245 164.635 89.6319 164.568 87.807 166.93" stroke="white" stroke-width="0.9" stroke-miterlimit="10" stroke-linecap="round" stroke-linejoin="round"/>
<path d="M46.6313 160.077L46.8304 158.746" stroke="#63737A" stroke-width="0.9" stroke-miterlimit="10" stroke-linecap="round" stroke-linejoin="round"/>
<path d="M48.9207 160.576L49.1197 159.245" stroke="#63737A" stroke-width="0.9" stroke-miterlimit="10" stroke-linecap="round" stroke-linejoin="round"/>
<path d="M51.4423 160.676L51.6746 159.478" stroke="#63737A" stroke-width="0.9" stroke-miterlimit="10" stroke-linecap="round" stroke-linejoin="round"/>
<path d="M81.6356 159.778L81.5361 158.38" stroke="#63737A" stroke-width="0.9" stroke-miterlimit="10" stroke-linecap="round" stroke-linejoin="round"/>
<path d="M84.3895 159.744L84.29 158.214" stroke="#63737A" stroke-width="0.9" stroke-miterlimit="10" stroke-linecap="round" stroke-linejoin="round"/>
<path d="M86.878 159.345L86.7785 157.915" stroke="#63737A" stroke-width="0.9" stroke-miterlimit="10" stroke-linecap="round" stroke-linejoin="round"/>
<path d="M44.4082 82.2958C44.4082 82.2958 43.5788 85.7224 43.4792 90.2802C43.3797 94.8379 46.9299 109.11 48.2239 113.934C49.5179 118.791 49.2525 119.523 49.0534 120.454C48.8543 121.386 46.8635 128.772 46.1999 136.423C45.5364 144.075 43.1474 150.23 43.4129 152.592C43.7778 155.785 45.1382 156.717 45.7023 157.083C46.2663 157.449 50.9114 158.946 54.0635 158.214C54.0635 158.214 57.4146 156.085 58.045 153.091C58.7086 150.096 58.3105 146.47 60.4671 136.689C62.5906 126.909 63.6192 122.883 63.9178 118.991C64.0837 116.662 64.1169 110.008 64.15 104.918C64.1832 101.458 64.1832 98.697 64.2164 98.4309C64.3159 97.7655 65.9417 98.5307 66.8044 96.4015C67.1694 95.4368 67.3685 93.607 67.4016 91.6442C67.468 89.1491 67.3021 86.4211 66.9703 84.924C66.4394 82.1627 44.9391 79.3682 44.4082 82.2958Z" fill="#2A2C30"/>
<path d="M89.9305 153.19C89.3665 154.588 88.3379 156.185 87.4089 156.551C86.4798 156.916 82.2992 157.482 80.1757 157.282C80.1757 157.282 76.6255 156.251 76.2606 153.556C75.8956 150.862 76.526 147.868 75.3315 141.813C74.1371 135.758 73.1085 125.045 72.8099 121.885C72.5445 118.725 66.0081 109.31 62.9556 103.621C59.9031 97.9319 56.6183 87.5189 59.339 85.0903C62.0597 82.6285 71.7813 81.5639 74.6679 83.5267C74.6679 83.5267 78.0191 91.7107 81.3702 101.492C84.4559 110.474 85.0863 113.501 85.5176 116.096C85.5508 116.329 85.584 116.562 85.6504 116.795C85.7831 117.593 85.949 119.656 86.1812 122.318C86.7121 129.071 87.3425 139.55 87.6079 141.946C87.9729 145.273 90.4946 151.793 89.9305 153.19Z" fill="#2A2C30"/>
<path d="M62.3584 98.9299C62.3584 98.9299 65.8754 97.6325 68.9943 97.1334" stroke="#63737A" stroke-width="0.9" stroke-miterlimit="10" stroke-linecap="round" stroke-linejoin="round"/>
<path d="M61.7528 122.089C62.2321 119.675 60.6974 117.333 58.325 116.86C55.9526 116.386 53.6409 117.96 53.1616 120.375C52.6822 122.79 54.2169 125.131 56.5893 125.604C58.9617 126.078 61.2735 124.504 61.7528 122.089Z" stroke="#63737A" stroke-width="0.9" stroke-miterlimit="10" stroke-linecap="round" stroke-linejoin="round"/>
<path d="M86.1812 122.284C85.3849 123.282 84.1573 123.914 82.7969 123.914C80.3748 123.914 78.4172 121.952 78.4172 119.49C78.4172 117.061 80.3748 115.065 82.7637 115.065C83.7923 115.065 84.7545 115.431 85.5176 116.063" stroke="#63737A" stroke-width="0.9" stroke-miterlimit="10" stroke-linecap="round" stroke-linejoin="round"/>
<path d="M45.1714 98.0317C45.1714 98.0317 48.8543 95.0375 48.8875 89.515C48.8875 89.515 46.5649 89.3819 45.1714 89.0493" stroke="#63737A" stroke-width="0.9" stroke-miterlimit="10" stroke-linecap="round" stroke-linejoin="round"/>
<path d="M64.15 104.918C64.1832 101.458 64.1832 98.697 64.2164 98.4309C64.3159 97.7655 65.9417 98.5307 66.8044 96.4015C67.1694 95.4368 67.3685 93.607 67.4016 91.6442" stroke="#63737A" stroke-width="0.9" stroke-miterlimit="10" stroke-linecap="round" stroke-linejoin="round"/>
<path d="M73.938 44.2037C73.938 44.2037 76.6587 44.3367 81.0384 53.1196C85.4181 61.8691 86.9775 65.0629 86.9775 65.0629C86.9775 65.0629 89.8641 64.3642 94.5756 63.5991C99.2871 62.8339 105.923 61.8691 105.923 61.8691C105.923 61.8691 107.715 61.9024 108.478 64.464C109.009 66.327 108.179 67.6578 107.682 68.2566C107.516 68.4562 107.317 68.6226 107.051 68.7224C105.027 69.5873 93.2153 74.5776 89.2006 75.4425C84.7877 76.374 82.631 76.241 78.7158 70.8515C74.8007 65.4621 71.715 61.2703 70.2882 59.1078C68.8615 56.8456 67.833 44.5363 73.938 44.2037Z" fill="#A79DE4"/>
<path d="M81.4034 73.9122C81.4034 73.9122 81.1711 72.149 84.5886 72.149C88.0061 72.149 89.7646 74.7107 88.9351 75.4426" stroke="#2A2C30" stroke-width="0.9" stroke-miterlimit="10" stroke-linecap="round" stroke-linejoin="round"/>
<path d="M86.9775 65.0296C86.9775 65.0296 85.5508 65.695 85.2522 66.693" stroke="#2A2C30" stroke-width="0.9" stroke-miterlimit="10" stroke-linecap="round" stroke-linejoin="round"/>
<path d="M106.089 62.1353C106.089 62.1353 107.549 61.603 107.914 61.4034C108.279 61.2038 109.075 59.8065 109.739 58.9415C110.402 58.0765 112.293 57.5775 112.824 57.6773C113.355 57.7771 113.554 58.1098 113.554 58.1098C113.554 58.1098 115.213 57.511 116.341 57.0452C117.469 56.5795 119.56 55.5482 119.858 56.3799C120.024 56.8789 118.73 57.6108 117.834 58.1098C116.74 58.7419 116.01 59.2077 116.01 59.2077C116.01 59.2077 116.54 59.4738 116.673 60.1724C116.806 60.8711 117.171 61.6362 116.507 62.7008C116.308 63.0002 117.071 63.8319 116.474 64.5971C115.446 65.828 112.957 66.4601 111.63 66.8594C110.27 67.2586 107.184 67.4582 107.184 67.4582C107.184 67.4582 106.188 67.2253 105.757 65.0629C105.326 62.9004 106.089 62.1353 106.089 62.1353Z" fill="#F4C2C9"/>
<path d="M113.554 58.1098C113.554 58.1098 113.787 58.7086 114.052 59.6069C114.317 60.5051 114.517 61.2038 113.82 61.237C113.123 61.2703 112.493 60.2057 112.227 59.6734" stroke="#E26E85" stroke-width="0.9" stroke-miterlimit="10" stroke-linecap="round" stroke-linejoin="round"/>
<path d="M112.692 60.4386C112.692 60.4386 113.455 61.9689 111.696 63.2996" stroke="#E26E85" stroke-width="0.9" stroke-miterlimit="10" stroke-linecap="round" stroke-linejoin="round"/>
<path d="M116.043 59.2077L114.185 60.0726" stroke="#E26E85" stroke-width="0.9" stroke-miterlimit="10" stroke-linecap="round" stroke-linejoin="round"/>
<path d="M113.256 61.0374C113.256 61.0374 112.924 61.5697 113.256 61.8691C113.587 62.1685 115.412 61.5032 116.74 60.738" stroke="#E26E85" stroke-width="0.9" stroke-miterlimit="10" stroke-linecap="round" stroke-linejoin="round"/>
<path d="M113.554 61.9357C113.554 61.9357 112.99 62.2351 113.256 62.8339C113.521 63.4327 114.948 63.1998 116.507 62.7008" stroke="#E26E85" stroke-width="0.9" stroke-miterlimit="10" stroke-linecap="round" stroke-linejoin="round"/>
<path d="M113.853 63.1998C113.853 63.1998 113.023 63.2996 113.455 64.1314C113.72 64.6304 115.313 64.464 115.645 64.5971" stroke="#E26E85" stroke-width="0.9" stroke-miterlimit="10" stroke-linecap="round" stroke-linejoin="round"/>
<path d="M104.164 62.4347C103.899 62.9004 103.567 63.7987 103.8 65.3956C104.065 67.4249 105.226 68.423 105.857 68.8222" stroke="#2A2C30" stroke-width="0.9" stroke-miterlimit="10" stroke-linecap="round" stroke-linejoin="round"/>
<path d="M63.1878 32.0275C63.1878 32.0275 62.1261 37.3837 61.5289 38.8475C60.9316 40.3113 64.1832 42.6068 67.4348 42.7399C70.6864 42.8729 70.3546 40.9766 70.3546 40.9766L71.3168 35.6537C71.3168 35.687 64.3491 30.7966 63.1878 32.0275Z" fill="#F4C2C9"/>
<path d="M64.6477 33.6244C64.1832 37.6831 67.103 39.6459 70.3546 41.1763C70.3546 41.0765 70.3546 40.9767 70.3546 40.9767L70.8855 38.1489C68.4634 37.3504 66.3399 35.6205 64.6477 33.6244Z" fill="#E26E85"/>
<path d="M49.2524 42.7731C49.9824 40.6107 52.7695 39.3132 55.0257 39.5128C57.3482 39.7125 61.7943 39.779 66.0745 41.1097C73.3739 43.372 75.1325 44.7027 75.5638 45.1019C77.9859 47.4307 77.7536 50.8906 76.3601 60.4386C75.4642 66.7263 74.7011 68.3231 74.9002 71.4171C75.0993 74.4778 75.6633 80.0003 76.0283 81.1314C76.3933 82.2625 75.4642 84.2254 74.6679 84.924C73.8716 85.6226 67.4348 87.0864 61.4625 86.9534C55.5234 86.8203 46.1004 85.1901 44.6073 84.1921C43.1142 83.194 42.0525 81.4641 42.3843 79.967C42.6829 78.47 43.0479 76.3408 43.9769 73.1803C44.9059 70.0198 44.9723 65.8946 46.4322 59.2742C47.5603 54.3838 47.7262 47.2976 49.2524 42.7731Z" fill="#E4C0A8"/>
<path d="M58.3768 67.1588C60.2349 67.558 64.4818 68.3564 69.5915 68.4562C70.0892 68.4562 70.5205 68.8554 70.5869 69.3545C70.6864 70.2194 71.0846 71.6167 72.279 72.9474C72.4449 73.1138 72.5445 73.3466 72.5445 73.6128C72.5776 75.0101 72.644 79.7341 71.715 80.466C70.6532 81.2645 59.3722 81.9964 52.3713 80.0336C51.9068 79.9005 51.575 79.5013 51.575 79.0355C51.6082 77.6715 51.6746 74.8104 51.9068 73.014C51.9732 72.648 52.2054 72.3486 52.5372 72.1823C53.6321 71.6832 56.1538 70.3525 57.0496 67.8574C57.3151 67.3251 57.8459 67.0257 58.3768 67.1588Z" stroke="#F8AB5D" stroke-width="0.9" stroke-miterlimit="10" stroke-linecap="round" stroke-linejoin="round"/>
<path d="M61.0975 38.0491C61.2303 37.7164 61.6616 37.6498 61.927 37.8827C62.5574 38.5481 63.9178 39.5461 66.3731 40.0119C70.1224 40.7105 70.4873 40.145 70.4873 40.145C70.4873 40.145 71.0846 40.3446 71.1509 40.8436C71.2173 41.3426 71.0514 42.6068 70.8855 43.2389C70.6864 43.871 67.8993 43.9375 65.6763 43.4718C63.6192 43.0393 61.7943 42.141 60.4671 40.7771C60.2349 40.5442 60.1685 40.2115 60.3012 39.9121C60.5003 39.4131 60.8321 38.6811 61.0975 38.0491Z" fill="#A79DE4"/>
<path d="M77.455 25.7065C77.455 26.3719 77.455 28.1684 76.7914 29.8983C76.1278 31.6283 75.0329 36.4522 72.8763 38.0158C70.7196 39.5794 66.0081 39.28 63.951 35.2545C61.8938 31.2623 62.5574 27.004 63.6192 23.6106C64.6809 20.2173 69.0606 18.9863 72.8763 20.3836C76.7251 21.7809 77.455 24.2095 77.455 25.7065Z" fill="#F4C2C9"/>
<path d="M63.5196 28.0353C63.5196 28.0353 63.7519 28.3014 64.0837 29.0001C64.3823 29.6987 65.0127 29.2995 65.245 28.0353C65.4772 26.7711 66.0081 25.8729 66.4062 25.9394C66.8044 26.0392 68.1979 26.2056 69.0274 24.7085C69.8569 23.1781 70.2219 23.411 70.2219 23.411C70.2219 23.411 70.8855 21.8141 72.6108 24.1096C74.3361 26.4052 75.4311 28.2016 77.4882 27.8357C79.5453 27.4697 81.3702 24.1097 79.8108 20.8826C78.2181 17.6556 73.3408 16.8904 69.691 17.8552C66.0413 18.82 64.15 18.0216 61.9602 19.8846C59.7704 21.7476 60.3012 23.7104 60.1685 25.9061C60.0358 28.1018 58.9077 29.2662 60.4008 31.2291C61.8938 33.1919 61.4957 35.0216 62.3252 36.1195C62.3252 36.1195 63.221 33.2252 63.1215 31.1293C63.0219 29.0334 63.5196 28.0353 63.5196 28.0353Z" fill="#2A2C30"/>
<path d="M73.374 29.865C73.3076 31.6283 71.8809 33.0255 70.1887 33.0255C68.4634 33.0255 67.0699 31.595 67.103 29.7985C67.103 27.9688 68.5961 26.4717 70.3546 26.505C72.1131 26.5382 73.4403 28.0686 73.374 29.865Z" stroke="#2A2C30" stroke-width="0.9" stroke-miterlimit="10" stroke-linecap="round" stroke-linejoin="round"/>
<path d="M78.4857 31.8311C78.9468 30.2434 78.4221 28.694 77.3137 28.3704C76.2053 28.0467 74.933 29.0714 74.4719 30.659C74.0108 32.2467 74.5355 33.7961 75.6439 34.1197C76.7522 34.4434 78.0246 33.4187 78.4857 31.8311Z" stroke="#2A2C30" stroke-width="0.9" stroke-miterlimit="10" stroke-linecap="round" stroke-linejoin="round"/>
<path d="M74.5352 30.5637C74.5352 30.5637 74.5021 29.8983 73.3408 30.2643" stroke="#2A2C30" stroke-width="0.9" stroke-miterlimit="10" stroke-linecap="round" stroke-linejoin="round"/>
<path d="M67.3685 28.4345L63.5196 27.7359" stroke="#2A2C30" stroke-width="0.9" stroke-miterlimit="10" stroke-linecap="round" stroke-linejoin="round"/>
<path d="M63.8514 28.6341C63.8514 28.6341 63.5528 26.8709 62.1261 26.8376C60.6994 26.8376 59.8367 31.1958 63.3869 31.7946" fill="#F4C2C9"/>
<path d="M61.8938 28.2017C62.1925 28.1351 62.5574 28.2017 62.7897 28.5343C62.8892 28.7007 62.9224 28.9003 62.9224 29.0999C62.9224 29.1997 62.8892 29.2662 62.8892 29.366C62.8892 29.4326 62.856 29.4991 62.856 29.5656C62.8229 29.6987 62.8229 29.7985 62.8229 29.8983C62.8229 29.9981 62.8229 30.0647 62.8892 30.1312C62.9888 30.2976 63.2542 30.4306 63.5196 30.597C63.221 30.6635 62.8892 30.73 62.5574 30.4972C62.3915 30.3974 62.292 30.1645 62.2588 29.9981C62.2256 29.7985 62.2588 29.6322 62.292 29.4658C62.3252 29.3993 62.3252 29.2995 62.3584 29.233C62.3584 29.1664 62.3915 29.1332 62.3915 29.0666C62.4247 28.9668 62.4247 28.867 62.3915 28.8005C62.3584 28.5676 62.1593 28.368 61.8938 28.2017Z" fill="#2A2C30"/>
<path d="M74.0707 30.0314C74.1039 30.4306 74.1702 30.7966 74.303 31.1293C74.3693 31.2956 74.4357 31.4287 74.5352 31.5617C74.6016 31.6615 74.8007 31.8944 74.8338 32.1273C74.9666 32.6263 74.8007 33.0921 74.5684 33.4248C74.4357 33.5911 74.303 33.7574 74.1039 33.8573C73.938 33.9571 73.7057 34.0569 73.5067 34.0236C73.8385 33.7907 74.0044 33.4913 74.1371 33.1586C74.2698 32.8592 74.303 32.5265 74.2366 32.2604C74.2034 32.1273 74.1371 32.0608 74.0044 31.8279C73.9048 31.6283 73.8385 31.4287 73.8053 31.1958C73.8053 30.7966 73.8716 30.3641 74.0707 30.0314Z" fill="#2A2C30"/>
<path d="M70.7528 35.321C70.7528 35.321 69.2929 35.3543 68.5629 33.8572" stroke="#2A2C30" stroke-width="0.9" stroke-miterlimit="10" stroke-linecap="round" stroke-linejoin="round"/>
<path d="M69.3924 30.4971C69.127 30.4306 68.9611 30.1645 69.0274 29.8983L69.1601 29.3993C69.2265 29.1332 69.4919 28.9668 69.7574 29.0333C70.0228 29.0999 70.1887 29.366 70.1223 29.6322L69.9896 30.1312C69.9233 30.3973 69.6578 30.5637 69.3924 30.4971Z" fill="#2A2C30"/>
<path d="M74.6679 31.8611C74.4025 31.7946 74.2366 31.5285 74.303 31.2623L74.4357 30.7633C74.502 30.4971 74.7675 30.3308 75.0329 30.3973C75.2984 30.4639 75.4643 30.73 75.3979 30.9962L75.2652 31.4952C75.1988 31.7613 74.9334 31.9277 74.6679 31.8611Z" fill="#2A2C30"/>
<path d="M70.7196 28.2016C70.3546 28.2682 70.1887 27.7691 69.6578 27.8024C68.8283 27.8357 68.3638 28.002 68.2975 27.6361C68.2643 27.3699 68.8947 26.8709 69.691 26.8376C70.8523 26.8376 71.3832 28.1018 70.7196 28.2016Z" fill="#2A2C30"/>
<path d="M74.6679 29.1997C74.9002 29.3993 75.232 29.0334 75.5638 29.2662C76.0615 29.5657 76.2274 29.8318 76.3933 29.5989C76.526 29.3993 76.3933 28.8005 75.9288 28.5011C75.1656 27.9688 74.1703 28.8338 74.6679 29.1997Z" fill="#2A2C30"/>
<path d="M32.8618 84.8242C32.8618 84.8242 32.4305 85.7557 32.4305 86.3213C32.4305 86.8868 32.895 92.1099 32.7622 93.1413C32.5964 94.1726 32.2977 96.2019 32.0987 96.5013C31.8996 96.8008 30.7051 95.8692 30.6719 92.742C30.6388 89.6148 29.577 85.3232 30.4729 84.8242C31.3687 84.3252 32.5963 84.425 32.8618 84.8242Z" fill="#F4C2C9"/>
<path d="M11.1292 100.261L19.0923 87.6853C19.4573 87.1197 20.2204 86.9201 20.8176 87.3193L39.564 99.2626C40.1281 99.6286 40.3272 100.394 39.929 100.993L31.9659 113.568C31.601 114.134 30.8378 114.333 30.2406 113.934L11.4942 101.991C10.9301 101.625 10.7642 100.859 11.1292 100.261Z" fill="#2A2C30"/>
<path d="M33.1272 109.875L37.1087 103.621C37.2746 103.321 37.706 103.321 37.9051 103.587L38.5355 104.419C38.6682 104.586 38.6682 104.785 38.5686 104.985L34.9853 110.64C34.8857 110.807 34.6866 110.906 34.4876 110.84L33.459 110.64C33.1272 110.541 32.9613 110.175 33.1272 109.875Z" fill="#A79DE4"/>
<path d="M31.9659 84.4915C31.9659 84.4915 31.7669 90.2802 31.7337 91.5111C31.7005 92.7088 31.7669 95.1706 31.4682 96.335C31.1696 97.4994 30.6719 100.427 29.7761 100.627C28.8803 100.826 29.8425 97.0336 29.8425 96.3017C29.8425 95.5698 29.4443 93.8066 29.4443 93.8066C29.4443 93.8066 29.1125 95.6364 28.8802 96.4348C28.648 97.2332 27.1217 99.7283 26.5245 99.6285C25.8941 99.5287 26.6572 97.6657 27.1217 96.5346C27.5531 95.5033 27.719 93.3408 27.719 93.3408C27.719 93.3408 27.2213 94.605 26.8231 95.2704C26.425 95.9358 25.0646 97.9984 24.5006 97.8986C23.9033 97.7988 24.8655 95.7029 25.4296 94.7381C25.9936 93.7733 26.0268 93.0747 26.0268 93.0747C26.0268 93.0747 25.131 93.9729 24.5669 94.4054C24.0029 94.8379 22.0121 95.8027 21.8462 95.3037C21.7135 94.8046 22.5761 94.2724 23.4056 93.5072C24.2351 92.7753 25.131 91.2117 25.33 90.9455C25.5291 90.7127 24.9651 88.3506 25.8609 86.787C26.7568 85.2234 27.2876 84.5913 27.5199 83.5267C27.719 82.4954 31.8664 83.7263 31.9659 84.4915Z" fill="#F4C2C9"/>
<path d="M52.7031 39.5129C52.7031 39.5129 48.9207 39.1469 44.3751 44.869C39.8295 50.5912 35.3502 55.3818 34.0894 57.644C32.8286 59.9396 30.0415 68.3897 28.648 75.0766C27.2544 81.7635 27.1217 82.9612 27.1549 83.6931C27.1881 84.3584 30.5392 85.29 32.7291 85.2567C33.1272 85.2567 33.4922 85.0238 33.6249 84.6579C34.4876 82.6285 37.5069 75.7087 38.7014 73.1803C40.0949 70.2194 41.7207 65.828 41.9198 65.5286C42.1189 65.2292 51.1769 55.9806 52.869 53.5521C54.5612 51.1567 56.187 47.1978 55.822 43.7379C55.4238 39.9786 53.4994 39.4796 52.7031 39.5129Z" fill="#A79DE4"/>
<path d="M34.5539 56.8789C34.5539 56.8789 35.5825 55.4483 36.8765 56.7458C38.2369 58.1098 37.6396 61.0707 35.7484 62.9337C34.189 64.464 31.9659 63.8319 32.165 62.4014" stroke="#2A2C30" stroke-width="0.9" stroke-miterlimit="10" stroke-linecap="round" stroke-linejoin="round"/>
<path d="M27.6194 82.0962C28.5153 82.5287 31.2028 83.7263 33.824 83.3937" stroke="#2A2C30" stroke-width="0.9" stroke-miterlimit="10" stroke-linecap="round" stroke-linejoin="round"/>
<path d="M114.483 91.5444L120.057 73.2469C120.223 72.7478 120.688 72.4151 121.219 72.4151L154.199 73.3467C154.763 73.3467 155.128 73.8789 154.995 74.4112L148.525 96.7342C148.36 97.2998 147.796 97.6657 147.231 97.5659L115.213 92.609C114.649 92.5424 114.317 92.0434 114.483 91.5444Z" fill="#2A2C30"/>
<path d="M114.185 92.4759L95.007 94.2724L127.888 102.39C128.684 102.589 129.514 102.589 130.31 102.39L148.16 97.7655L114.185 92.4759Z" fill="#63737A"/>
<path d="M127.921 102.39L95.0401 94.2724C95.0401 94.9045 95.4715 95.4368 96.0687 95.6031L127.058 103.854C128.352 104.186 129.746 104.186 131.04 103.787L147.298 98.9965C147.862 98.8301 148.227 98.3311 148.227 97.7323L130.376 102.357C129.514 102.589 128.684 102.589 127.921 102.39Z" fill="#2A2C30"/>
<path d="M136.15 76.4739L133.827 84.3917C133.761 84.5913 133.562 84.7244 133.362 84.7244L120.323 83.5933C120.024 83.56 119.858 83.2938 119.925 83.0277L122.115 75.7752C122.181 75.5756 122.347 75.4425 122.546 75.4425L135.718 75.9083C136.017 75.9083 136.216 76.2077 136.15 76.4739Z" fill="white"/>
<path d="M133.661 77.9044L132.201 82.6618L122.048 81.9298L122.413 80.8653L126.163 79.2019L128.286 80.8653L133.661 77.9044Z" fill="#F4C2C9"/>
<path d="M126.063 87.6187L125.101 90.6129C125.034 90.8125 124.835 90.9455 124.603 90.9123L118.332 90.0806C118.067 90.0473 117.868 89.7812 117.967 89.515L118.797 86.7205C118.863 86.5209 119.062 86.3878 119.261 86.3878L125.665 87.0532C125.963 87.0532 126.163 87.3193 126.063 87.6187Z" fill="#E4C0A8"/>
<path d="M135.884 88.6168L134.822 91.9103C134.756 92.1099 134.557 92.243 134.325 92.2097L128.352 91.4113C128.087 91.378 127.888 91.1119 127.987 90.8125L128.983 87.7185C129.049 87.5189 129.248 87.3858 129.447 87.4191L135.486 88.0179C135.785 88.0512 135.984 88.3174 135.884 88.6168Z" fill="#A79DE4"/>
<path d="M147.165 89.7479L146.037 93.4074C145.971 93.607 145.772 93.7401 145.539 93.7068L138.339 92.742C138.074 92.7088 137.875 92.4426 137.974 92.1432L139.069 88.7166C139.136 88.517 139.335 88.3839 139.534 88.4172L146.734 89.1491C147.066 89.1823 147.265 89.4817 147.165 89.7479Z" fill="#F4C2C9"/>
<path d="M143.283 78.0707C143.051 79.0688 142.022 79.834 141.027 79.7674C140.065 79.7009 139.567 78.8692 139.832 77.9377C140.098 77.0394 141.027 76.3741 141.923 76.3741C142.852 76.3741 143.482 77.1392 143.283 78.0707Z" fill="#E4C0A8"/>
<path d="M145.639 76.9729L150.483 77.1388" stroke="#63737A" stroke-width="0.9" stroke-miterlimit="10" stroke-linecap="round" stroke-linejoin="round"/>
<path d="M138.074 83.2938L148.459 84.0258" stroke="#63737A" stroke-width="0.9" stroke-miterlimit="10" stroke-linecap="round" stroke-linejoin="round"/>
<path d="M145.075 78.9357L149.919 79.1348" stroke="#63737A" stroke-width="0.9" stroke-miterlimit="10" stroke-linecap="round" stroke-linejoin="round"/>
<path d="M171.652 29.233L146.435 31.1958C145.805 31.229 145.274 30.73 145.307 30.0647L146.369 15.4599C146.435 14.5949 147.099 13.863 147.961 13.7632L173.576 10.2701C174.24 10.1702 174.804 10.7358 174.77 11.4012L173.344 27.5695C173.277 28.4345 172.547 29.1331 171.652 29.233Z" fill="#A79DE4"/>
<path d="M170.822 28.7007L145.606 30.6635C144.975 30.6968 144.444 30.1977 144.478 29.5324L145.539 14.9276C145.606 14.0626 146.269 13.3307 147.132 13.2309L172.746 9.73777C173.41 9.63796 173.974 10.2035 173.941 10.8689L172.514 27.0373C172.448 27.9355 171.718 28.6341 170.822 28.7007Z" fill="#D3CEF2"/>
<path d="M154.033 18.9198C153.967 19.9179 153.104 20.8161 152.142 20.9159C151.18 21.0157 150.483 20.2838 150.549 19.319C150.616 18.321 151.445 17.4227 152.407 17.3229C153.403 17.1899 154.1 17.9218 154.033 18.9198Z" fill="#2A2C30"/>
<path d="M153.536 25.274L150.085 25.6067C149.322 25.6732 148.758 25.0744 148.824 24.3093C148.957 22.546 150.45 20.9492 152.175 20.7495C153.901 20.5499 155.228 21.8807 155.062 23.7104C154.995 24.4756 154.332 25.2075 153.536 25.274Z" fill="#2A2C30"/>
<path d="M158.114 17.1233L168.865 15.8591" stroke="#63737A" stroke-width="0.9" stroke-miterlimit="10" stroke-linecap="round" stroke-linejoin="round"/>
<path d="M157.849 20.0842L168.599 18.9198" stroke="#63737A" stroke-width="0.9" stroke-miterlimit="10" stroke-linecap="round" stroke-linejoin="round"/>
<path d="M157.617 23.0451L164.087 22.413" stroke="#63737A" stroke-width="0.9" stroke-miterlimit="10" stroke-linecap="round" stroke-linejoin="round"/>
<path d="M143.051 3.28374C141.757 1.98628 139.932 1.22111 137.676 0.954965C136.017 0.755356 134.557 0.954964 133.263 1.55379C131.67 2.25243 130.476 3.48335 129.58 5.27983L128.087 5.91193L128.95 6.81018L132.832 7.50881C133.064 6.71037 133.528 5.97847 134.192 5.27983C134.856 4.61447 135.751 4.34833 136.879 4.51467C138.041 4.68101 138.771 5.1135 139.069 5.81213C139.368 6.51076 139.401 7.27593 139.169 8.0411C138.97 8.70647 138.605 9.30529 138.041 9.80432C137.709 10.1037 137.344 10.3366 136.913 10.5362L135.585 11.2016C134.291 11.8337 133.429 12.4325 132.997 13.0313C132.699 13.4638 132.334 14.1625 131.969 15.1605L130.642 15.593L131.504 16.4912L135.486 17.5891C135.718 16.7241 135.984 16.1253 136.216 15.7593C136.581 15.1605 137.145 14.6947 137.875 14.3621L139.235 13.73C140.629 13.0979 141.624 12.499 142.221 12C143.217 11.1683 143.88 10.0705 144.245 8.63993C144.809 6.44423 144.411 4.64774 143.051 3.28374Z" fill="#F8AB5D"/>
<path d="M132.898 18.8865L132.765 18.8533C131.604 18.5206 130.376 19.2525 130.045 20.5167C129.68 21.7809 130.31 23.1116 131.471 23.5108L131.604 23.5774C132.798 23.9766 134.059 23.2447 134.424 21.9139C134.789 20.5832 134.092 19.2192 132.898 18.8865Z" fill="#F8AB5D"/>
<path d="M132.433 0.655536C133.727 0.0899763 135.187 -0.109634 136.846 0.0567071C139.103 0.322853 140.894 1.08802 142.221 2.38548C143.582 3.71621 143.98 5.54597 143.383 7.80821C143.018 9.20547 142.354 10.3366 141.359 11.1683C140.795 11.6673 139.799 12.2329 138.373 12.8983L137.012 13.5303C136.282 13.863 135.718 14.3288 135.353 14.9276C135.121 15.2936 134.889 15.9257 134.623 16.7574L130.642 15.6595C131.206 13.9296 131.67 12.7984 132.135 12.1996C132.566 11.6008 133.429 11.002 134.723 10.3699L136.05 9.7045C136.481 9.50489 136.88 9.23874 137.178 8.9726C137.742 8.47357 138.14 7.90801 138.306 7.20938C138.505 6.41094 138.472 5.67904 138.207 4.98041C137.941 4.28177 137.178 3.84929 136.017 3.68295C134.889 3.51661 133.993 3.78275 133.329 4.44811C132.666 5.11348 132.201 5.84538 131.969 6.67709L128.087 5.97845C129.016 3.28373 130.409 1.55378 132.433 0.655536ZM132.002 18.3542L132.135 18.3875C133.329 18.7535 134.026 20.0842 133.661 21.3817C133.296 22.7124 132.002 23.4443 130.841 23.0451L130.708 22.9785C129.547 22.5793 128.916 21.2486 129.281 19.9844C129.646 18.7535 130.841 18.0216 132.002 18.3542Z" fill="#E4C0A8"/>
<path d="M42.1521 21.1821H54.893L56.187 22.0138C56.6183 22.2799 57.1492 21.9805 57.1492 21.4815V12.4658C57.1492 11.5343 56.4192 10.8024 55.4902 10.8024H42.1521C41.223 10.8024 40.4931 11.5343 40.4931 12.4658V19.5186C40.4931 20.4502 41.223 21.1821 42.1521 21.1821Z" fill="#F4C2C9"/>
<path d="M53.0349 13.7632H44.541" stroke="#2A2C30" stroke-width="0.9" stroke-miterlimit="10" stroke-linecap="round" stroke-linejoin="round"/>
<path d="M53.0349 16.092H44.541" stroke="#2A2C30" stroke-width="0.9" stroke-miterlimit="10" stroke-linecap="round" stroke-linejoin="round"/>
<path d="M53.0349 18.4208H48.1575" stroke="#2A2C30" stroke-width="0.9" stroke-miterlimit="10" stroke-linecap="round" stroke-linejoin="round"/>
</g>
</svg>
