<svg width="499" height="384" viewBox="0 0 499 384" fill="none" xmlns="http://www.w3.org/2000/svg">
<g opacity="0.9">
<path d="M437.45 322.276L53.1011 311.262C35.2141 310.745 20.5054 297.069 18.7315 279.255L0.179232 95.9314C-1.89034 75.1596 14.2227 57.0491 35.0663 56.7534L462.876 50.8398C484.459 50.5441 501.385 69.3938 498.724 90.8308L473.815 291.082C471.524 309.266 455.78 322.794 437.45 322.276Z" fill="#F6F5FC"/>
<mask id="mask0_634_4781" style="mask-type:alpha" maskUnits="userSpaceOnUse" x="0" y="50" width="499" height="273">
<path d="M437.45 322.276L53.1011 311.262C35.2141 310.745 20.5054 297.069 18.7315 279.255L0.179232 95.9314C-1.89034 75.1596 14.2227 57.0491 35.0663 56.7534L462.876 50.8398C484.459 50.5441 501.385 69.3938 498.724 90.8308L473.815 291.082C471.524 309.266 455.78 322.794 437.45 322.276Z" fill="#EAF9F3"/>
</mask>
<g mask="url(#mask0_634_4781)">
<path d="M123.762 355.541H-183.348C-189.482 355.541 -194.435 350.588 -194.435 344.452V170.222C-194.435 164.086 -189.482 159.133 -183.348 159.133H123.762C129.897 159.133 134.849 164.086 134.849 170.222V344.452C134.849 350.588 129.897 355.541 123.762 355.541Z" stroke="#D3CEF2" stroke-width="1.8" stroke-miterlimit="10" stroke-linecap="round" stroke-linejoin="round"/>
<path d="M529.62 343.861H219.849C213.714 343.861 208.762 338.908 208.762 332.773V78.2642C208.762 72.1288 213.714 67.1761 219.849 67.1761H529.62C535.754 67.1761 540.707 72.1288 540.707 78.2642V332.773C540.707 338.908 535.754 343.861 529.62 343.861Z" stroke="#D3CEF2" stroke-width="1.8" stroke-miterlimit="10" stroke-linecap="round" stroke-linejoin="round"/>
<path d="M50.1443 107.166H-16.3037V100.588H50.1443C50.8834 100.588 51.4747 101.18 51.4747 101.919V105.762C51.4747 106.575 50.8834 107.166 50.1443 107.166Z" stroke="#D3CEF2" stroke-width="1.8" stroke-miterlimit="10" stroke-linecap="round" stroke-linejoin="round"/>
<path d="M38.0968 100.588H23.0924C21.4663 100.588 20.1359 99.4056 19.9141 97.7793L18.7315 87.1348C18.5098 85.2867 19.9881 83.5866 21.9098 83.5866H39.2794C41.2012 83.5866 42.6055 85.2128 42.4577 87.1348L41.2751 97.7793C41.0533 99.3317 39.7229 100.588 38.0968 100.588Z" stroke="#D3CEF2" stroke-width="1.8" stroke-miterlimit="10" stroke-linecap="round" stroke-linejoin="round"/>
<path d="M28.7837 83.5866C28.7837 83.5866 22.8706 82.9952 21.688 75.0118C21.688 75.0118 27.0097 76.5641 28.7097 80.3341C28.7097 80.3341 29.4489 71.9071 33.4402 71.094C33.4402 71.094 35.2141 77.3772 32.4054 80.4819C32.4054 80.4819 34.5489 76.9337 40.0185 77.0076C40.0185 77.0076 38.6141 82.0342 33.2184 83.5127" fill="#D3CEF2"/>
<path d="M121.397 195.946H54.7269C53.0269 195.946 51.6226 194.541 51.6226 192.841V172.587C51.6226 170.887 53.0269 169.482 54.7269 169.482H121.397C123.097 169.482 124.501 170.887 124.501 172.587V192.841C124.575 194.541 123.171 195.946 121.397 195.946Z" stroke="#D3CEF2" stroke-width="1.8" stroke-miterlimit="10" stroke-linecap="round" stroke-linejoin="round"/>
<path d="M95.7488 176.578H80.3748C79.7835 176.578 79.2661 176.061 79.2661 175.47C79.2661 174.878 79.7835 174.361 80.3748 174.361H95.7488C96.3401 174.361 96.8575 174.878 96.8575 175.47C96.8575 176.061 96.3401 176.578 95.7488 176.578Z" fill="#D3CEF2"/>
<path d="M121.397 229.802H54.7269C53.0269 229.802 51.6226 228.397 51.6226 226.697V206.443C51.6226 204.742 53.0269 203.338 54.7269 203.338H121.397C123.097 203.338 124.501 204.742 124.501 206.443V226.697C124.575 228.397 123.171 229.802 121.397 229.802Z" stroke="#D3CEF2" stroke-width="1.8" stroke-miterlimit="10" stroke-linecap="round" stroke-linejoin="round"/>
<path d="M95.7488 210.434H80.3748C79.7835 210.434 79.2661 209.917 79.2661 209.325C79.2661 208.734 79.7835 208.217 80.3748 208.217H95.7488C96.3401 208.217 96.8575 208.734 96.8575 209.325C96.8575 209.991 96.3401 210.434 95.7488 210.434Z" fill="#D3CEF2"/>
<path d="M463.763 253.678H397.093C395.393 253.678 393.989 252.273 393.989 250.573V230.319C393.989 228.619 395.393 227.214 397.093 227.214H463.763C465.463 227.214 466.867 228.619 466.867 230.319V250.573C466.941 252.273 465.537 253.678 463.763 253.678Z" stroke="#D3CEF2" stroke-width="1.8" stroke-miterlimit="10" stroke-linecap="round" stroke-linejoin="round"/>
<path d="M438.115 234.384H422.741C422.15 234.384 421.632 233.867 421.632 233.276C421.632 232.684 422.15 232.167 422.741 232.167H438.115C438.706 232.167 439.224 232.684 439.224 233.276C439.224 233.867 438.706 234.384 438.115 234.384Z" fill="#D3CEF2"/>
<path d="M378.171 253.678H311.501C309.801 253.678 308.397 252.273 308.397 250.573V230.319C308.397 228.619 309.801 227.214 311.501 227.214H378.171C379.871 227.214 381.275 228.619 381.275 230.319V250.573C381.275 252.273 379.871 253.678 378.171 253.678Z" stroke="#D3CEF2" stroke-width="1.8" stroke-miterlimit="10" stroke-linecap="round" stroke-linejoin="round"/>
<path d="M352.523 234.384H337.149C336.558 234.384 336.041 233.867 336.041 233.276C336.041 232.684 336.558 232.167 337.149 232.167H352.523C353.115 232.167 353.632 232.684 353.632 233.276C353.632 233.867 353.115 234.384 352.523 234.384Z" fill="#D3CEF2"/>
<path d="M36.3966 195.946H-30.2731C-31.9731 195.946 -33.3774 194.541 -33.3774 192.841V172.587C-33.3774 170.887 -31.9731 169.482 -30.2731 169.482H36.3966C38.0967 169.482 39.501 170.887 39.501 172.587V192.841C39.5749 194.541 38.1706 195.946 36.3966 195.946Z" stroke="#D3CEF2" stroke-width="1.8" stroke-miterlimit="10" stroke-linecap="round" stroke-linejoin="round"/>
<path d="M10.7488 176.578H-4.62519C-5.21649 176.578 -5.73389 176.061 -5.73389 175.47C-5.73389 174.878 -5.21649 174.361 -4.62519 174.361H10.7488C11.3401 174.361 11.8575 174.878 11.8575 175.47C11.8575 176.061 11.414 176.578 10.7488 176.578Z" fill="#D3CEF2"/>
<path d="M36.3966 229.802H-30.2731C-31.9731 229.802 -33.3774 228.397 -33.3774 226.697V206.443C-33.3774 204.742 -31.9731 203.338 -30.2731 203.338H36.3966C38.0967 203.338 39.501 204.742 39.501 206.443V226.697C39.5749 228.397 38.1706 229.802 36.3966 229.802Z" stroke="#D3CEF2" stroke-width="1.8" stroke-miterlimit="10" stroke-linecap="round" stroke-linejoin="round"/>
<path d="M10.7488 210.434H-4.62519C-5.21649 210.434 -5.73389 209.917 -5.73389 209.325C-5.73389 208.734 -5.21649 208.217 -4.62519 208.217H10.7488C11.3401 208.217 11.8575 208.734 11.8575 209.325C11.8575 209.991 11.414 210.434 10.7488 210.434Z" fill="#D3CEF2"/>
<path d="M560.811 144.645H224.506C222.658 144.645 221.106 143.093 221.106 141.245V82.3299C221.106 80.4818 222.658 78.9295 224.506 78.9295H560.811C562.659 78.9295 564.211 80.4818 564.211 82.3299V141.245C564.211 143.093 562.733 144.645 560.811 144.645Z" stroke="#D3CEF2" stroke-width="1.8" stroke-miterlimit="10" stroke-linecap="round" stroke-linejoin="round"/>
<path d="M560.811 217.753H224.506C222.658 217.753 221.106 216.2 221.106 214.352V155.437C221.106 153.589 222.658 152.037 224.506 152.037H560.811C562.659 152.037 564.211 153.589 564.211 155.437V214.352C564.211 216.274 562.733 217.753 560.811 217.753Z" stroke="#D3CEF2" stroke-width="1.8" stroke-miterlimit="10" stroke-linecap="round" stroke-linejoin="round"/>
<path d="M251.114 107.463H243.797V144.645H251.114V107.463Z" stroke="#D3CEF2" stroke-width="1.8" stroke-miterlimit="10" stroke-linecap="round" stroke-linejoin="round"/>
<path d="M258.654 117.59H251.041V144.645H258.654V117.59Z" stroke="#D3CEF2" stroke-width="1.8" stroke-miterlimit="10" stroke-linecap="round" stroke-linejoin="round"/>
<path d="M471.598 180.496H464.28V217.679H471.598V180.496Z" stroke="#D3CEF2" stroke-width="1.8" stroke-miterlimit="10" stroke-linecap="round" stroke-linejoin="round"/>
<path d="M479.211 190.624H471.598V217.679H479.211V190.624Z" stroke="#D3CEF2" stroke-width="1.8" stroke-miterlimit="10" stroke-linecap="round" stroke-linejoin="round"/>
<path d="M456.741 180.496H449.424V217.679H456.741V180.496Z" stroke="#D3CEF2" stroke-width="1.8" stroke-miterlimit="10" stroke-linecap="round" stroke-linejoin="round"/>
<path d="M449.528 181.88L442.55 179.677L431.355 215.133L438.333 217.337L449.528 181.88Z" stroke="#D3CEF2" stroke-width="1.8" stroke-miterlimit="10" stroke-linecap="round" stroke-linejoin="round"/>
<path d="M464.354 190.624H456.741V217.679H464.354V190.624Z" stroke="#D3CEF2" stroke-width="1.8" stroke-miterlimit="10" stroke-linecap="round" stroke-linejoin="round"/>
<path d="M372.924 107.463H365.606V144.645H372.924V107.463Z" stroke="#D3CEF2" stroke-width="1.8" stroke-miterlimit="10" stroke-linecap="round" stroke-linejoin="round"/>
<path d="M380.537 117.59H372.924V144.645H380.537V117.59Z" stroke="#D3CEF2" stroke-width="1.8" stroke-miterlimit="10" stroke-linecap="round" stroke-linejoin="round"/>
<path d="M300.636 107.463H293.319V144.645H300.636V107.463Z" stroke="#D3CEF2" stroke-width="1.8" stroke-miterlimit="10" stroke-linecap="round" stroke-linejoin="round"/>
<path d="M293.42 108.835L286.442 106.631L275.247 142.088L282.225 144.292L293.42 108.835Z" stroke="#D3CEF2" stroke-width="1.8" stroke-miterlimit="10" stroke-linecap="round" stroke-linejoin="round"/>
<path d="M308.249 117.59H300.636V144.645H308.249V117.59Z" stroke="#D3CEF2" stroke-width="1.8" stroke-miterlimit="10" stroke-linecap="round" stroke-linejoin="round"/>
<path d="M471.524 112.342L472.337 101.328C472.411 100.588 471.82 99.9969 471.081 99.9969H467.902H464.724C463.985 99.9969 463.467 100.588 463.467 101.328L464.281 112.342C464.281 112.342 457.628 116.629 457.702 120.177C457.776 122.912 459.402 135.996 460.141 141.762C460.363 143.388 461.694 144.571 463.32 144.571H467.902H472.485C474.111 144.571 475.441 143.388 475.663 141.762C476.402 135.996 478.028 122.912 478.102 120.177C478.176 116.555 471.524 112.342 471.524 112.342Z" fill="#D3CEF2"/>
<path d="M442.032 112.342L442.845 101.328C442.919 100.588 442.328 99.9969 441.589 99.9969H438.411H435.232C434.493 99.9969 433.976 100.588 433.976 101.328L434.789 112.342C434.789 112.342 428.137 116.629 428.211 120.177C428.284 122.912 429.911 135.996 430.65 141.762C430.871 143.388 432.202 144.571 433.828 144.571H438.411H442.993C444.619 144.571 445.95 143.388 446.171 141.762C446.911 135.996 448.537 122.912 448.611 120.177C448.685 116.555 442.032 112.342 442.032 112.342Z" fill="#D3CEF2"/>
<path d="M-0.929688 287.534H705.533" stroke="#D3CEF2" stroke-width="1.8" stroke-miterlimit="10" stroke-linecap="round" stroke-linejoin="round"/>
</g>
<path d="M64.0405 295.074V384H70.0275L71.9492 295.074H64.0405Z" fill="#D3CEF2"/>
<path d="M71.9492 295.074H64.0405V304.756H71.7275L71.9492 295.074Z" fill="#A79DE4"/>
<path d="M419.193 295.073V384H413.132L411.285 295.073H419.193Z" fill="#D3CEF2"/>
<path d="M411.285 295.073H419.193V304.756H411.506L411.285 295.073Z" fill="#A79DE4"/>
<path d="M444.767 291.451H38.4663L81.7056 272.528H401.454L444.767 291.451Z" fill="#E4C0A8"/>
<path d="M444.767 291.451H38.4663V297.143H444.767V291.451Z" fill="#D3CEF2"/>
<path d="M86.4358 247.912L77.0488 253.308C75.6445 254.121 73.7966 253.678 72.9836 252.199L46.0792 205.777C45.2661 204.373 45.7096 202.525 47.1879 201.712L56.5749 196.315C57.9792 195.502 59.827 195.946 60.6401 197.424L87.5445 243.846C88.3575 245.251 87.8401 247.099 86.4358 247.912Z" fill="#2A2C30"/>
<path d="M79.8577 241.333C79.0446 239.929 77.1968 239.411 75.7924 240.224C74.3881 241.037 73.8707 242.885 74.6837 244.29C75.4968 245.694 77.3446 246.211 78.749 245.398C80.1533 244.585 80.6707 242.811 79.8577 241.333Z" fill="#63737A"/>
<path d="M67.5142 233.941L74.3881 229.949" stroke="#63737A" stroke-width="1.8" stroke-miterlimit="10" stroke-linecap="round" stroke-linejoin="round"/>
<path d="M65.5923 230.688L72.5401 226.697" stroke="#63737A" stroke-width="1.8" stroke-miterlimit="10" stroke-linecap="round" stroke-linejoin="round"/>
<path d="M100.627 216.2L94.5665 241.851C94.3448 242.59 97.8926 244.438 102.623 246.064C107.28 247.69 111.345 248.43 111.567 247.764L122.727 223.888L100.627 216.2Z" fill="#E4C0A8"/>
<path d="M116.962 230.319L121.101 231.723C122.949 232.389 123.762 234.459 122.875 236.159L119.402 242.812C118.662 244.216 117.036 244.807 115.558 244.29L111.049 242.738" stroke="#E4C0A8" stroke-width="1.8" stroke-miterlimit="10" stroke-linecap="round" stroke-linejoin="round"/>
<path d="M122.728 223.961C122.432 224.848 117.184 223.887 111.123 221.744C104.988 219.6 100.332 217.161 100.628 216.2C100.923 215.313 106.171 216.274 112.232 218.418C118.367 220.561 123.023 223 122.728 223.961Z" fill="#A79DE4"/>
<path d="M162.049 90.7568L77.2704 113.229C74.1661 114.042 71.1357 111.972 70.7661 108.793L60.1965 17.3536C59.9747 15.136 61.7487 13.214 63.9661 13.4358L150.149 19.4234C152.588 19.5712 154.584 21.4192 154.953 23.8586L164.562 86.839C164.932 88.5392 163.749 90.3132 162.049 90.7568Z" fill="#63737A"/>
<path d="M165.967 91.0525L80.3011 113.746C77.1967 114.559 74.0924 112.416 73.7228 109.237L63.0793 16.8362C62.8575 14.6185 64.6315 12.6966 66.9228 12.8444L154.066 18.832C156.506 18.9798 158.575 20.8279 158.945 23.2672L168.701 86.9129C168.849 88.8349 167.74 90.535 165.967 91.0525Z" fill="#2A2C30"/>
<path d="M98.9273 30.3631L78.0099 30.0675C77.5664 30.0675 77.2707 29.7718 77.1968 29.3284L76.9012 26.9631C76.8273 26.4457 77.2708 26.0023 77.7142 26.0023L98.7056 26.5936C99.1491 26.5936 99.4447 26.8892 99.5186 27.3327L99.8143 29.4762C99.8143 29.9197 99.4447 30.3631 98.9273 30.3631Z" fill="#A79DE4"/>
<path d="M78.2314 38.1992L118.736 37.6818" stroke="#63737A" stroke-width="1.8" stroke-miterlimit="10" stroke-linecap="round" stroke-linejoin="round"/>
<path d="M79.2661 46.4043L104.914 45.3695" stroke="#63737A" stroke-width="1.8" stroke-miterlimit="10" stroke-linecap="round" stroke-linejoin="round"/>
<path d="M88.8748 96.9662L86.4357 97.4836C85.9183 97.6314 85.4009 97.2618 85.327 96.6705L82.8878 76.1945C82.8139 75.677 83.1835 75.2335 83.7009 75.1596L86.14 74.79C86.6574 74.716 87.1009 75.0856 87.1748 75.6031L89.6878 95.9313C89.6139 96.4487 89.3183 96.8922 88.8748 96.9662Z" fill="#E4C0A8"/>
<path d="M97.5224 94.0832L93.4572 61.5582C93.3833 61.0407 93.7528 60.5972 94.2702 60.5233L96.3398 60.3015C96.8572 60.2276 97.3007 60.5972 97.3007 61.1146L101.366 93.344C101.44 93.7875 101.144 94.2311 100.627 94.3789L98.4833 94.8224C98.1137 94.9703 97.5963 94.6007 97.5224 94.0832Z" fill="#A79DE4"/>
<path d="M108.832 91.6439L107.279 79.6687C107.206 79.1513 107.575 78.7078 108.019 78.6338L109.793 78.3382C110.31 78.2642 110.753 78.6338 110.827 79.1513L112.379 91.0525C112.453 91.496 112.158 91.9396 111.64 92.0874L109.866 92.457C109.349 92.5309 108.832 92.1613 108.832 91.6439Z" fill="#E4C0A8"/>
<path d="M121.84 89.869L120.288 90.1646C119.77 90.3124 119.253 89.9429 119.179 89.4255L118.292 82.995C118.218 82.4776 118.588 82.0342 119.031 81.9602L120.583 81.6646C121.101 81.5907 121.618 81.9603 121.618 82.4776L122.505 88.9081C122.579 89.3516 122.283 89.7951 121.84 89.869Z" fill="#F4C2C9"/>
<path d="M151.997 80.9253L145.641 66.6587L151.11 54.0182C153.623 56.6794 155.471 60.6711 156.21 65.1802C157.023 71.6113 155.323 77.7467 151.997 80.9253Z" fill="#A79DE4"/>
<path d="M151.036 54.0182L145.567 66.6586L134.849 58.0838C136.401 53.7225 139.432 50.6918 143.201 50.47C146.01 50.2482 148.819 51.5788 151.036 54.0182Z" fill="#F4C2C9"/>
<path d="M151.997 80.9253C150.814 82.0341 149.484 82.7733 148.006 83.069C141.797 84.3995 135.366 77.7467 134.036 68.2109C133.519 64.4409 133.888 60.8928 134.849 58.0099L145.567 66.5847L151.997 80.9253Z" fill="#E4C0A8"/>
<path d="M223.619 17.945C227.167 24.8196 231.601 31.6203 234.262 35.4642C235.445 37.1643 237.736 37.5339 239.362 36.3512C242.688 33.9857 247.123 31.6203 250.228 30.068C252.075 29.107 252.962 26.8894 252.149 24.9674C250.154 20.3104 248.084 14.1011 246.384 8.63096C244.093 1.38674 235.962 -2.08753 229.162 1.31282C222.954 4.34357 220.441 11.8096 223.619 17.945Z" fill="#E4C0A8"/>
<path d="M248.158 26.0023C249.267 26.0023 250.302 26.4458 250.893 27.3329C252.076 29.0331 254.293 31.916 256.658 33.6161C260.132 36.0555 272.771 38.1992 273.806 40.0472C274.841 41.8953 271.81 42.4866 269.741 42.2649C267.597 42.117 265.897 41.8213 265.454 42.7084C265.01 43.5954 265.602 47.2915 268.484 49.8787C271.293 52.4659 276.541 55.201 276.763 57.5664C276.984 59.9319 271.145 57.6404 268.558 56.0141C265.897 54.4618 265.232 54.0922 265.232 54.0922C265.232 54.0922 264.862 54.8314 262.793 55.5706C261.61 55.9402 260.354 54.9792 259.245 55.201C258.136 55.4227 253.184 57.936 250.819 56.7533C249.119 55.8663 245.349 47.2915 243.502 44.9999C242.171 43.2998 238.993 38.421 237.441 35.9816C236.775 35.0206 236.775 33.6901 237.367 32.7291C238.623 30.2897 241.875 26.2241 248.158 26.0023Z" fill="#F4C2C9"/>
<path d="M265.158 54.1656C265.158 54.1656 262.275 52.6874 261.093 51.5048C260.428 50.8395 259.91 49.8787 259.91 49.8787" stroke="#E26E85" stroke-width="1.8" stroke-miterlimit="10" stroke-linecap="round" stroke-linejoin="round"/>
<path d="M259.171 55.2006C259.171 55.2006 257.397 54.4614 256.732 53.944C256.066 53.3527 255.105 51.8006 255.105 51.8006" stroke="#E26E85" stroke-width="1.8" stroke-miterlimit="10" stroke-linecap="round" stroke-linejoin="round"/>
<path d="M254.884 56.6791C254.884 56.6791 253.553 56.1617 252.814 55.4965C252.297 55.053 251.262 53.7226 251.262 53.7226" stroke="#E26E85" stroke-width="1.8" stroke-miterlimit="10" stroke-linecap="round" stroke-linejoin="round"/>
<path d="M199.228 76.4161C199.449 75.8248 200.189 75.8248 200.41 76.4161C200.78 77.5249 201.223 78.7077 201.741 79.2251C202.184 79.6686 203.441 80.1861 204.549 80.5557C205.141 80.7774 205.141 81.5167 204.549 81.7384C203.441 82.108 202.258 82.5515 201.741 83.069C201.297 83.5125 200.78 84.7692 200.41 85.878C200.189 86.4693 199.449 86.4693 199.228 85.878C198.858 84.7692 198.415 83.5864 197.897 83.069C197.454 82.6255 196.197 82.108 195.088 81.7384C194.497 81.5167 194.497 80.7774 195.088 80.5557C196.197 80.1861 197.38 79.7426 197.897 79.2251C198.415 78.7077 198.858 77.5249 199.228 76.4161Z" fill="#A79DE4"/>
<path d="M208.171 33.7639C208.319 33.3205 208.91 33.3205 209.058 33.7639C209.354 34.577 209.649 35.4639 210.019 35.7596C210.388 36.1292 211.201 36.4248 212.014 36.7205C212.458 36.8683 212.458 37.4596 212.014 37.6074C211.201 37.9031 210.314 38.1987 210.019 38.5683C209.649 38.9379 209.354 39.7509 209.058 40.564C208.91 41.0074 208.319 41.0074 208.171 40.564C207.875 39.7509 207.58 38.864 207.21 38.5683C206.841 38.1987 206.027 37.9031 205.214 37.6074C204.771 37.4596 204.771 36.8683 205.214 36.7205C206.027 36.4248 206.914 36.1292 207.21 35.7596C207.58 35.39 207.949 34.5031 208.171 33.7639Z" fill="#A79DE4"/>
<path d="M278.167 70.5025C278.314 70.059 278.906 70.059 279.054 70.5025C279.349 71.3155 279.645 72.2025 280.014 72.4981C280.384 72.7938 281.197 73.1633 282.01 73.459C282.454 73.6068 282.454 74.1981 282.01 74.346C281.197 74.6416 280.31 74.9373 280.014 75.3068C279.645 75.6764 279.349 76.4895 279.054 77.3025C278.906 77.746 278.314 77.746 278.167 77.3025C277.871 76.4895 277.575 75.6025 277.206 75.3068C276.836 74.9373 276.023 74.6416 275.21 74.346C274.767 74.1981 274.767 73.6068 275.21 73.459C276.023 73.1633 276.91 72.8677 277.206 72.4981C277.575 72.2025 277.945 71.3155 278.167 70.5025Z" fill="#A79DE4"/>
<path d="M215.637 57.8621C215.784 57.4925 216.228 57.4925 216.302 57.8621C216.524 58.5273 216.819 59.1925 217.041 59.4882C217.337 59.7838 218.002 60.0795 218.667 60.2273C219.037 60.3752 219.037 60.8186 218.667 60.8925C218.002 61.1143 217.337 61.4099 217.041 61.6317C216.745 61.9273 216.45 62.5926 216.302 63.2578C216.154 63.6273 215.71 63.6273 215.637 63.2578C215.415 62.5926 215.119 61.9273 214.897 61.6317C214.602 61.336 213.937 61.0404 213.271 60.8925C212.902 60.7447 212.902 60.3012 213.271 60.2273C213.937 60.0056 214.602 59.7099 214.897 59.4882C215.119 59.2665 215.415 58.5273 215.637 57.8621Z" fill="#E4C0A8"/>
<path d="M284.08 90.2393C284.302 89.648 285.041 89.648 285.263 90.2393C285.632 91.3481 286.076 92.5309 286.593 93.0483C287.037 93.4918 288.293 94.0093 289.402 94.3789C289.993 94.6007 289.993 95.3398 289.402 95.5616C288.293 95.9312 287.111 96.3747 286.593 96.8922C286.15 97.3357 285.632 98.5924 285.263 99.7012C285.041 100.293 284.302 100.293 284.08 99.7012C283.711 98.5924 283.267 97.4096 282.75 96.8922C282.306 96.4487 281.05 95.9312 279.941 95.5616C279.35 95.3398 279.35 94.6007 279.941 94.3789C281.05 94.0093 282.232 93.5658 282.75 93.0483C283.193 92.5309 283.711 91.3481 284.08 90.2393Z" fill="#E4C0A8"/>
<path d="M408.993 75.5292C408.993 75.5292 407.958 76.5641 409.88 84.3997C411.802 92.2352 416.163 98.2228 416.163 98.2228C416.163 98.2228 421.78 93.4919 420.08 85.3606C418.454 77.2293 408.993 75.5292 408.993 75.5292Z" fill="#2A2C30"/>
<path d="M410.102 98.5924C410.102 98.5924 408.624 99.0359 405.15 102.658C401.676 106.28 396.576 108.128 390.515 110.863C384.454 113.598 381.498 100.884 383.05 94.4529C384.528 88.0218 391.18 83.5865 391.18 83.5865L404.115 85.3606C404.115 85.3606 408.402 80.2601 410.102 83.5865C411.728 86.913 411.58 94.3789 410.102 98.5924Z" fill="#F4C2C9"/>
<path d="M399.015 122.173L354.963 132.3C353.041 132.744 351.119 131.561 350.676 129.639L338.184 75.5292C337.741 73.6073 338.924 71.6853 340.845 71.2418L384.898 61.1147C386.819 60.6711 388.741 61.8539 389.185 63.7758L401.602 117.886C402.119 119.808 400.937 121.73 399.015 122.173Z" fill="#2A2C30"/>
<path d="M380.463 76.638L351.785 83.217C350.824 83.4387 349.937 82.8474 349.715 81.8864C349.493 80.9254 350.085 80.0384 351.045 79.8166L379.724 73.2377C380.685 73.0159 381.572 73.6073 381.793 74.5682C381.941 75.4553 381.35 76.4163 380.463 76.638Z" fill="#E4C0A8"/>
<path d="M351.711 90.83L383.789 83.4387" stroke="#63737A" stroke-width="1.8" stroke-miterlimit="10" stroke-linecap="round" stroke-linejoin="round"/>
<path d="M352.967 96.2263L385.046 88.835" stroke="#63737A" stroke-width="1.8" stroke-miterlimit="10" stroke-linecap="round" stroke-linejoin="round"/>
<path d="M372.111 117.516L360.285 120.251C359.324 120.473 358.437 119.882 358.215 118.921L355.481 107.093C355.259 106.132 355.85 105.245 356.811 105.024L368.637 102.288C369.598 102.067 370.485 102.658 370.707 103.619L373.442 115.446C373.589 116.333 372.998 117.294 372.111 117.516Z" fill="#E4C0A8"/>
<path d="M375.067 100.736L387.115 97.9272" stroke="#63737A" stroke-width="1.8" stroke-miterlimit="10" stroke-linecap="round" stroke-linejoin="round"/>
<path d="M376.398 106.576L388.52 103.841" stroke="#63737A" stroke-width="1.8" stroke-miterlimit="10" stroke-linecap="round" stroke-linejoin="round"/>
<path d="M377.728 112.489L385.045 110.789" stroke="#63737A" stroke-width="1.8" stroke-miterlimit="10" stroke-linecap="round" stroke-linejoin="round"/>
<path d="M371.15 65.993L355.48 69.6147C354.371 69.8365 353.41 68.8756 353.632 67.7669L353.78 67.0278C353.928 66.4365 354.371 65.993 354.963 65.8452L369.967 62.3712C370.558 62.2234 371.15 62.4452 371.519 62.8886L371.963 63.4799C372.702 64.4408 372.258 65.7712 371.15 65.993Z" fill="#A79DE4"/>
<path d="M405.15 80.8515C405.15 80.8515 403.302 81.8124 399.754 80.8515C396.206 79.8905 395.615 79.0034 391.919 78.0425C388.223 77.0815 383.123 78.1164 382.236 79.6687C381.35 81.2211 383.715 82.182 386.893 82.5516C390.071 82.9212 391.55 88.9827 396.65 91.2743C405.15 95.0442 412.689 83.5126 405.15 80.8515Z" fill="#F4C2C9"/>
<path d="M382.236 79.6687C381.35 81.2211 383.715 82.1821 386.893 82.5517C390.071 82.9213 391.55 88.9827 396.65 91.2743C398.423 92.0874 400.124 92.1613 401.676 91.8656" stroke="#E26E85" stroke-width="1.8" stroke-miterlimit="10" stroke-linecap="round" stroke-linejoin="round"/>
<path d="M410.767 77.4511C410.767 77.4511 406.85 79.9644 405.15 80.8515C405.15 80.8515 408.476 84.104 409.806 89.9437C411.137 95.7834 410.102 98.5924 410.102 98.5924C410.102 98.5924 414.463 98.1489 416.606 96.5966C416.606 96.5966 418.676 93.1962 416.976 86.5434C415.276 79.8905 410.767 77.4511 410.767 77.4511Z" fill="white"/>
<path d="M457.185 68.4328C454.228 58.6753 442.698 54.6835 434.345 60.5233C429.467 63.9236 424.367 67.2501 420.302 69.4677C408.993 75.6031 408.993 75.6031 408.993 75.6031C408.993 75.6031 415.424 81.9603 416.384 88.9827C417.345 96.0052 416.163 98.2967 416.163 98.2967C416.163 98.2967 433.828 93.9354 449.424 86.3216C456.002 82.9951 459.328 75.4553 457.185 68.4328Z" fill="#A79DE4"/>
<path d="M414.685 92.9005C414.685 92.3831 414.315 92.0135 413.798 92.0135C413.28 92.0135 412.911 92.3831 412.911 92.9005C412.911 93.4179 413.28 93.7874 413.798 93.7874C414.315 93.7874 414.685 93.4179 414.685 92.9005Z" fill="#2A2C30"/>
<path d="M315.493 229.358L367.75 223.223L366.863 232.684L356.589 234.163L355.554 236.085L315.493 229.358Z" fill="#63737A"/>
<path d="M355.554 235.05L369.154 181.162C369.598 179.314 371.224 177.835 373.072 177.614L442.92 167.191C444.398 166.969 445.654 168.373 445.211 169.852L430.946 218.122C430.428 219.748 429.098 221.079 427.398 221.448L357.993 237.637C356.515 237.933 355.185 236.602 355.554 235.05Z" fill="#2A2C30"/>
<path d="M408.993 200.602C408.254 203.263 405.815 205.85 403.376 206.368C401.011 206.885 399.607 205.111 400.346 202.45C401.085 199.789 403.524 197.202 405.963 196.685C408.328 196.168 409.733 197.942 408.993 200.602Z" fill="#63737A"/>
<path d="M356.589 237.415C356.367 237.267 326.063 233.275 317.637 232.093C316.38 231.945 315.493 230.91 315.493 229.654V229.358L356.589 234.162V237.415Z" fill="#2A2C30"/>
<path d="M420.154 135.848H442.919C443.954 135.848 444.841 136.735 444.767 137.844L443.584 152.111C443.511 153.368 442.55 154.329 441.293 154.476L418.38 156.99C417.271 157.138 416.31 156.177 416.384 155.068L417.641 138.288C417.641 136.883 418.824 135.848 420.154 135.848Z" stroke="#A79DE4" stroke-width="1.8" stroke-miterlimit="10" stroke-linecap="round" stroke-linejoin="round"/>
<path d="M418.676 136.366L431.98 143.535C432.867 143.979 433.902 143.905 434.715 143.314L444.176 136.366" stroke="#A79DE4" stroke-width="1.8" stroke-miterlimit="10" stroke-linecap="round" stroke-linejoin="round"/>
<path d="M292.21 63.9236L289.845 66.5105C289.475 66.8801 289.475 67.5453 289.845 67.9888C290.215 68.3583 290.732 68.4323 291.176 68.2105L293.984 66.5105L292.21 63.9236Z" fill="#2A2C30"/>
<path d="M313.793 70.2069L314.458 73.6808C314.532 74.1982 314.237 74.7895 313.719 74.9373C313.202 75.0851 312.684 74.8634 312.463 74.346L310.984 71.3895L313.793 70.2069Z" fill="#2A2C30"/>
<path d="M305.885 73.2376C314.784 73.2376 321.998 66.0228 321.998 57.1229C321.998 48.2229 314.784 41.0081 305.885 41.0081C296.986 41.0081 289.771 48.2229 289.771 57.1229C289.771 66.0228 296.986 73.2376 305.885 73.2376Z" fill="#A79DE4"/>
<path d="M310.858 66.2078C315.866 63.4547 317.694 57.1626 314.941 52.1541C312.188 47.1455 305.897 45.3172 300.889 48.0704C295.881 50.8236 294.052 57.1157 296.805 62.1242C299.558 67.1327 305.85 68.961 310.858 66.2078Z" fill="#E4C0A8"/>
<path d="M308.767 60.818L305.885 57.1224L307.437 51.9485" stroke="#63737A" stroke-width="1.8" stroke-miterlimit="10" stroke-linecap="round" stroke-linejoin="round"/>
<path d="M295.611 41.525C295.167 41.6729 294.65 41.4511 294.502 40.9337C294.133 38.7902 295.315 36.6468 297.459 35.8337C299.602 35.0207 301.893 35.8337 303.076 37.6815C303.372 38.125 303.15 38.6424 302.633 38.8642L295.611 41.525Z" fill="#A79DE4"/>
<path d="M322.885 49.5082C323.18 49.8778 323.772 49.9517 324.141 49.5821C325.619 47.956 325.767 45.5169 324.363 43.6691C322.959 41.8212 320.593 41.3038 318.672 42.2647C318.228 42.4864 318.08 43.0778 318.376 43.4473L322.885 49.5082Z" fill="#A79DE4"/>
<path d="M313.202 39.825L308.989 38.6424C308.324 38.4207 307.88 37.7555 308.102 37.0163C308.324 36.3511 308.989 35.9076 309.728 36.1294L313.941 37.312C314.606 37.5337 315.05 38.1989 314.828 38.9381C314.607 39.6033 313.867 40.0468 313.202 39.825Z" fill="#A79DE4"/>
<path d="M309.761 38.0038L308.606 41.9787L311.658 42.8655L312.813 38.8906L309.761 38.0038Z" fill="#A79DE4"/>
<path d="M133.888 164.604L134.553 171.404C134.627 172.069 134.258 172.735 133.593 173.03C131.523 173.991 130.266 176.135 130.488 178.353L131.301 185.893C131.523 188.184 133.223 190.032 135.44 190.476C136.106 190.624 136.623 191.215 136.697 191.88L137.362 198.681C137.51 199.938 136.179 200.825 135.071 200.233L133.445 199.42C129.897 197.646 127.458 194.098 127.088 190.106L125.536 175.1C125.092 171.109 126.793 167.191 129.897 164.677L131.375 163.495C132.262 162.756 133.74 163.347 133.888 164.604Z" fill="#2A2C30"/>
<path d="M168.405 20.9758C169.736 29.9941 164.71 38.1993 156.284 39.382C146.601 40.7126 136.475 32.3596 135.144 20.828C133.888 9.5181 141.797 1.75644 151.479 3.08701C159.979 4.26974 167.149 12.1053 168.405 20.9758Z" fill="#F8AB5D"/>
<path d="M171.88 19.4234C173.21 28.7374 168.11 37.2382 159.388 38.421C149.336 39.8255 138.914 31.1767 137.584 19.2755C136.253 7.59606 144.458 -0.387371 154.436 0.943201C163.158 2.19985 170.549 10.3311 171.88 19.4234Z" fill="#E4C0A8"/>
<path d="M159.758 14.2486C160.053 16.5399 158.649 18.3138 156.58 18.3138C154.436 18.3138 152.366 16.3181 152.071 13.9529C151.775 11.5877 153.327 9.81378 155.471 9.96161C157.54 10.1094 159.462 12.0312 159.758 14.2486Z" fill="#2A2C30"/>
<path d="M161.753 28.7374L154.14 29.2549C152.292 29.4027 150.592 27.8504 150.297 25.7806C149.705 21.2714 152.662 17.7233 156.579 17.7972C160.275 17.8711 163.601 21.1975 164.192 25.1892C164.34 27.1112 163.305 28.6635 161.753 28.7374Z" fill="#2A2C30"/>
<path d="M399.385 152.702C398.276 151.52 396.428 151.446 395.245 152.481C394.063 153.589 393.989 155.437 395.024 156.62C396.058 157.802 397.98 157.876 399.163 156.841C400.419 155.733 400.493 153.885 399.385 152.702Z" fill="#2A2C30"/>
<path d="M395.541 145.976L395.023 145.384C393.323 143.536 390.441 143.388 388.519 145.088C386.671 146.789 386.523 149.672 388.223 151.593L388.741 152.185C389.332 152.85 389.776 153.589 389.997 154.476C390.145 155.142 390.367 155.881 390.515 156.62C390.884 158.172 392.806 158.764 394.063 157.655L397.315 154.698L400.567 151.741C401.75 150.633 401.38 148.711 399.828 148.119C399.089 147.897 398.423 147.602 397.758 147.38C396.871 147.084 396.132 146.641 395.541 145.976Z" fill="#A79DE4"/>
<path d="M336.854 157.581C336.854 157.581 338.628 166.008 336.854 176.209L360.802 171.035C360.802 171.035 355.48 162.164 354.076 154.033L336.854 157.581Z" fill="#2A2C30"/>
<path d="M337.371 161.425L354.962 157.729" stroke="#63737A" stroke-width="1.8" stroke-miterlimit="10" stroke-linecap="round" stroke-linejoin="round"/>
<path d="M341.51 164.899L352.893 162.164" stroke="#63737A" stroke-width="1.8" stroke-miterlimit="10" stroke-linecap="round" stroke-linejoin="round"/>
<path d="M341.732 168.447L349.345 166.673" stroke="#63737A" stroke-width="1.8" stroke-miterlimit="10" stroke-linecap="round" stroke-linejoin="round"/>
<path d="M393.471 238.894L409.584 235.272C409.584 235.272 409.806 242.664 421.189 247.025C421.189 247.025 408.55 256.635 404.632 259.148C404.706 259.074 395.245 254.195 393.471 238.894Z" fill="#A79DE4"/>
<path d="M394.432 243.772L410.619 238.524" stroke="#2A2C30" stroke-width="1.8" stroke-miterlimit="10" stroke-linecap="round" stroke-linejoin="round"/>
<path d="M399.754 246.803L409.88 242.146" stroke="#2A2C30" stroke-width="1.8" stroke-miterlimit="10" stroke-linecap="round" stroke-linejoin="round"/>
<path d="M401.454 249.907L411.58 244.438" stroke="#2A2C30" stroke-width="1.8" stroke-miterlimit="10" stroke-linecap="round" stroke-linejoin="round"/>
<path d="M403.671 252.864L409.511 249.317" stroke="#2A2C30" stroke-width="1.8" stroke-miterlimit="10" stroke-linecap="round" stroke-linejoin="round"/>
<path d="M137.879 123.651C137.879 123.651 136.253 124.095 133.666 123.799L134.997 121.729C132.114 121.803 125.166 118.033 124.427 114.559C124.353 114.116 124.353 113.672 124.501 113.376V113.303C125.61 111.085 131.449 111.602 135.736 115.816C140.836 120.769 137.879 123.651 137.879 123.651Z" fill="#D3CEF2"/>
<path d="M135.071 121.73L133.74 123.799C132.114 123.578 130.045 123.06 127.827 121.803C125.019 120.251 123.688 118.255 123.023 116.703C123.836 114.855 124.427 113.598 124.575 113.303C124.427 113.672 124.427 114.042 124.501 114.485C125.24 118.033 132.188 121.803 135.071 121.73Z" fill="#A79DE4"/>
<path d="M93.9747 144.127C93.9747 144.127 97.3747 145.68 100.553 145.236C103.731 144.793 109.94 143.019 111.196 143.684C112.453 144.349 114.596 144.423 113.931 146.567C113.34 148.71 112.01 151.223 109.201 151.371C106.392 151.593 103.583 153.736 98.9269 152.406C94.2703 151.075 91.5356 150.41 91.3877 148.562C91.3138 146.641 93.9747 144.127 93.9747 144.127Z" fill="#F4C2C9"/>
<path d="M137.879 123.651C136.697 127.126 121.249 147.454 113.932 158.098C106.614 168.743 94.1967 198.903 87.988 197.646C81.7793 196.389 74.0923 190.328 75.4227 186.854C76.8271 183.379 92.4967 173.474 104.471 156.398C116.445 139.323 116.149 127.495 119.771 117.812C121.323 113.672 122.432 113.968 122.432 113.968C122.432 113.968 122.358 115.151 122.949 116.777C123.54 118.329 124.871 120.325 127.753 121.877C129.971 123.134 132.04 123.651 133.666 123.873C136.253 124.169 137.879 123.651 137.879 123.651Z" fill="white"/>
<path d="M111.271 154.254C111.271 154.254 114.227 148.784 114.966 145.458" stroke="#D3CEF2" stroke-width="1.8" stroke-miterlimit="10" stroke-linecap="round" stroke-linejoin="round"/>
<path d="M114.08 154.993C114.08 154.993 116.075 151.224 117.11 150.263" stroke="#D3CEF2" stroke-width="1.8" stroke-miterlimit="10" stroke-linecap="round" stroke-linejoin="round"/>
<path d="M103.214 169.334C103.214 169.334 101.81 173.03 100.257 175.617" stroke="#D3CEF2" stroke-width="1.8" stroke-miterlimit="10" stroke-linecap="round" stroke-linejoin="round"/>
<path d="M99.0747 168.3C99.0747 168.3 96.3399 172.586 91.3877 176.578" stroke="#D3CEF2" stroke-width="1.8" stroke-miterlimit="10" stroke-linecap="round" stroke-linejoin="round"/>
<path d="M105.358 148.711C105.358 148.711 109.94 151.667 112.527 152.702C115.188 153.737 118.588 152.628 118.884 152.628C119.179 152.628 120.584 154.846 119.327 156.398C118.071 157.951 116.666 158.172 116.518 158.69C116.371 159.207 116.74 162.164 115.927 163.199C115.188 164.234 113.562 164.825 113.044 165.491C112.601 166.156 112.01 169.482 111.197 170C110.384 170.517 109.349 172.217 107.279 172.513C105.21 172.809 97.0792 169.556 89.5401 163.716C84.7357 160.02 81.6313 158.69 81.6313 158.69C81.6313 158.69 84.9575 144.127 91.0183 145.458C97.1531 146.789 105.358 148.711 105.358 148.711Z" fill="#F4C2C9"/>
<path d="M105.357 148.711C105.357 148.711 109.94 151.667 112.527 152.702C115.188 153.737 118.588 152.628 118.884 152.628" stroke="#E26E85" stroke-width="1.8" stroke-miterlimit="10" stroke-linecap="round" stroke-linejoin="round"/>
<path d="M87.1008 139.249C87.1008 139.249 87.9138 138.583 88.8747 139.323C89.8356 140.062 93.4573 142.945 93.9008 144.127C94.4182 145.31 91.9051 152.628 87.9877 157.137C84.1442 161.647 82.0008 161.647 81.779 161.573C81.5573 161.499 76.0877 158.986 75.3486 158.025C74.6094 157.064 74.9051 156.029 74.9051 156.029C74.9051 156.029 85.3268 139.175 87.1008 139.249Z" fill="#A79DE4"/>
<path d="M39.2792 113.672C34.2531 119.808 34.8444 128.9 40.6835 134.296C42.3835 135.848 44.3053 137.622 46.4488 139.544C57.9792 149.893 75.8662 156.324 75.8662 156.324C85.6228 151.815 87.101 139.249 87.101 139.249C78.3054 133.705 69.5836 123.356 63.1531 114.337C57.3879 106.354 45.5618 106.058 39.2792 113.672Z" fill="#E4C0A8"/>
<path d="M116.592 158.764C116.592 158.764 114.597 159.725 113.34 159.872C112.083 160.02 110.31 159.872 110.31 159.872" stroke="#E26E85" stroke-width="1.8" stroke-miterlimit="10" stroke-linecap="round" stroke-linejoin="round"/>
<path d="M113.488 165.269C113.488 165.269 112.601 166.008 111.345 166.23C110.088 166.377 109.053 165.786 109.053 165.786" stroke="#E26E85" stroke-width="1.8" stroke-miterlimit="10" stroke-linecap="round" stroke-linejoin="round"/>
<path d="M110.605 170.665C110.605 170.665 108.831 171.256 107.871 170.369" stroke="#E26E85" stroke-width="1.8" stroke-miterlimit="10" stroke-linecap="round" stroke-linejoin="round"/>
<path d="M309.062 243.92C294.945 244.216 272.771 249.538 259.319 255.008C245.941 260.478 236.775 265.579 236.775 265.579C236.775 265.579 239.954 263.805 243.723 271.049C247.493 278.293 246.162 286.72 246.162 286.72C248.084 286.203 293.91 284.798 308.545 282.876C323.18 280.954 340.106 275.632 339.071 261.365C338.036 247.099 325.471 243.181 308.249 240.002C290.954 236.824 281.419 238.154 280.384 237.859C279.349 237.637 276.023 236.233 274.249 234.089C272.475 231.945 270.628 226.105 270.628 226.105C270.628 226.105 225.984 223.296 221.475 230.836C217.04 238.376 237.219 259.961 237.219 259.961L309.062 243.92Z" fill="#2A2C30"/>
<path d="M202.628 225.218C202.628 225.218 200.188 230.541 199.301 232.463C198.415 234.385 177.941 235.124 168.775 235.272C159.61 235.42 141.649 239.116 140.245 252.347C138.619 267.427 151.258 274.45 173.801 276.076C199.154 277.924 222.658 277.333 227.61 277.85C232.562 278.367 246.236 272.232 247.789 266.54C249.341 260.848 270.85 256.487 270.85 256.487C270.85 256.487 275.58 232.832 267.819 228.101C260.058 223.297 202.628 225.218 202.628 225.218Z" fill="#2A2C30"/>
<path d="M247.788 261.218C247.788 261.218 205.806 237.046 172.471 238.45" stroke="#63737A" stroke-width="1.8" stroke-miterlimit="10" stroke-linecap="round" stroke-linejoin="round"/>
<path d="M236.775 265.653C236.775 265.653 234.706 266.54 235.888 273.637C237.071 280.733 243.575 288.273 246.162 286.794C248.749 285.316 247.419 272.454 244.462 268.166C241.58 263.953 236.775 265.653 236.775 265.653Z" fill="#2A2C30"/>
<path d="M231.971 268.018C231.971 268.018 227.906 272.971 226.058 274.376C224.21 275.78 215.932 276.372 212.901 281.102C209.871 285.833 216.819 296.7 222.436 294.926C220.884 295.887 219.554 296.774 218.519 297.439C213.493 300.839 204.328 305.94 197.823 298.474C192.354 292.117 194.275 284.429 198.267 279.328C202.258 274.302 212.532 273.636 214.897 272.971C217.262 272.232 222.658 268.388 225.023 266.984C227.019 265.801 228.497 267.353 231.971 268.018Z" fill="#A79DE4"/>
<path d="M246.31 284.355C246.014 284.429 240.693 285.316 238.475 285.759C236.701 286.129 228.275 291.082 222.362 294.852C216.745 296.626 209.797 285.759 212.827 281.028C215.858 276.298 224.136 275.706 225.984 274.302C227.832 272.897 231.897 267.944 231.897 267.944C232.414 268.018 233.006 268.092 233.597 268.166C238.327 268.536 240.767 266.91 240.767 266.91C241.654 267.723 242.614 269.053 243.575 270.975C246.236 275.928 246.458 281.324 246.31 284.355Z" fill="#F4C2C9"/>
<path d="M309.063 243.92C294.945 244.216 272.771 249.538 259.319 255.008C245.941 260.479 236.775 265.579 236.775 265.579" stroke="#63737A" stroke-width="1.8" stroke-miterlimit="10" stroke-linecap="round" stroke-linejoin="round"/>
<path d="M143.275 244.955C144.162 244.512 145.493 244.29 147.34 244.881C151.332 246.212 152.662 255.009 150.667 260.479C148.671 266.023 144.236 265.727 142.758 264.175" stroke="#63737A" stroke-width="1.8" stroke-miterlimit="10" stroke-linecap="round" stroke-linejoin="round"/>
<path d="M336.484 252.865C336.484 252.865 332.789 248.651 328.428 253.9C323.623 259.592 326.137 269.201 329.98 271.493C333.897 273.784 336.041 271.493 336.041 271.493" stroke="#63737A" stroke-width="1.8" stroke-miterlimit="10" stroke-linecap="round" stroke-linejoin="round"/>
<path d="M175.132 148.563C175.132 149.006 174.762 149.376 174.319 149.376C173.875 149.376 173.506 149.006 173.506 148.563C173.506 148.119 173.875 147.75 174.319 147.75C174.762 147.75 175.132 148.119 175.132 148.563Z" stroke="#2A2C30" stroke-width="1.8" stroke-miterlimit="10" stroke-linecap="round" stroke-linejoin="round"/>
<path d="M191.245 134.74C189.693 139.914 188.067 142.132 188.215 146.863C178.828 149.598 172.619 143.758 172.619 143.758C173.063 141.762 173.284 140.21 172.989 139.249C172.102 135.701 167.297 134.074 163.971 129.639C160.645 125.204 160.349 117.368 161.976 116.407C162.715 115.964 163.454 116.112 164.563 119.808C165.228 121.951 166.189 123.873 166.41 124.169C164.858 120.621 164.193 108.941 168.48 110.715C169.884 111.307 168.258 113.82 169.958 118.329C171.51 122.617 174.393 124.243 174.393 124.243C174.393 124.243 173.876 120.769 175.797 118.034C177.423 115.742 181.563 113.155 182.302 115.594C183.115 117.96 179.345 118.847 179.05 121.877C178.606 125.5 182.671 128.309 185.406 125.943C188.141 123.578 186.589 120.916 185.406 119.216C184.223 117.59 182.376 115.446 183.706 114.485C185.036 113.598 188.363 114.633 190.728 118.699C193.019 122.691 192.797 129.565 191.245 134.74Z" fill="#F4C2C9"/>
<path d="M206.249 187.741C206.249 187.741 189.619 208.734 178.68 213.465C167.74 218.196 160.349 214.87 158.206 203.412C156.062 191.954 162.862 171.478 165.819 163.938C167.962 158.32 171.362 149.45 172.619 143.832C172.619 143.832 178.901 149.598 188.214 146.937C188.288 151.446 186.219 168.078 185.997 169.63C186.071 169.113 186.958 166.673 193.167 157.951C200.336 147.971 207.506 143.61 207.506 143.61C207.506 143.61 213.567 146.493 215.341 160.021C217.041 173.622 206.249 187.741 206.249 187.741Z" fill="#A79DE4"/>
<path d="M185.997 169.63C185.997 169.63 185.332 188.554 182.893 194.689" stroke="#2A2C30" stroke-width="1.8" stroke-miterlimit="10" stroke-linecap="round" stroke-linejoin="round"/>
<path d="M174.319 124.317C174.319 124.317 174.615 126.386 175.501 127.569" stroke="#E26E85" stroke-width="1.8" stroke-miterlimit="10" stroke-linecap="round" stroke-linejoin="round"/>
<path d="M170.919 149.672C170.919 149.672 175.132 155.733 187.771 153.959" stroke="#2A2C30" stroke-width="1.8" stroke-miterlimit="10" stroke-linecap="round" stroke-linejoin="round"/>
<path d="M160.349 209.843C160.349 209.843 158.427 203.264 165.523 201.712C172.693 200.159 181.266 210.434 175.797 214.5" stroke="#2A2C30" stroke-width="1.8" stroke-miterlimit="10" stroke-linecap="round" stroke-linejoin="round"/>
<path d="M166.336 124.317C166.336 124.317 167.149 126.165 168.923 127.939C169.662 128.678 170.697 129.417 171.14 130.378" stroke="#E26E85" stroke-width="1.8" stroke-miterlimit="10" stroke-linecap="round" stroke-linejoin="round"/>
<path d="M254.589 79.5949C263.015 81.7386 267.006 86.5434 266.636 98.6664C266.267 110.789 264.641 115.151 270.406 121.877C276.171 128.53 277.723 138.066 266.784 144.054C255.845 150.041 231.897 151.594 219.997 144.054C208.097 136.514 206.693 128.456 210.241 120.547C213.788 112.637 223.249 107.463 221.18 101.771C219.11 96.0052 221.623 102.288 221.623 102.288C221.623 102.288 215.415 97.7793 215.932 88.761C216.375 79.7427 227.462 76.3423 233.228 76.0466C236.184 75.8988 239.362 77.7468 243.723 78.486C248.084 79.0774 252.445 79.0774 254.589 79.5949Z" fill="#2A2C30"/>
<path d="M236.923 137.105C236.923 137.105 220.958 137.992 211.645 141.319C202.332 144.645 204.032 152.037 202.849 159.799C201.593 167.56 194.053 175.47 197.897 186.041C201.74 196.611 205.51 202.599 203.514 210.73C201.593 218.861 199.671 222.927 199.966 225.218C200.336 227.51 210.906 234.532 214.971 235.937C219.036 237.341 226.945 231.724 226.945 231.724C226.945 231.724 231.01 237.046 236.923 238.229C242.836 239.485 266.784 233.276 272.254 227.14C272.254 227.14 268.706 220.266 268.558 211.987C268.41 203.708 273.215 193.433 274.988 187.741C276.688 182.049 286.741 160.094 282.823 152.776C280.015 147.528 259.023 135.701 236.923 137.105Z" fill="#E4C0A8"/>
<path d="M283.119 153.589C283.119 153.589 290.732 161.203 296.719 173.548C296.719 173.548 297.089 147.971 297.606 146.197C297.606 146.197 305.515 148.119 313.497 144.941C313.497 144.941 315.641 164.677 318.819 179.683C321.998 194.689 325.545 217.087 314.754 220.044C304.037 223.075 294.132 216.2 281.05 198.681C268.041 181.236 269.076 172.439 269.076 168.004C269.002 162.756 276.097 149.302 283.119 153.589Z" fill="#A79DE4"/>
<path d="M296.719 173.622C296.719 173.622 296.202 189.515 298.123 199.568" stroke="#2A2C30" stroke-width="1.8" stroke-miterlimit="10" stroke-linecap="round" stroke-linejoin="round"/>
<path d="M297.163 153.146C297.163 153.146 306.623 156.102 314.163 151.298" stroke="#2A2C30" stroke-width="1.8" stroke-miterlimit="10" stroke-linecap="round" stroke-linejoin="round"/>
<path d="M311.28 149.376C311.28 149.819 310.91 150.189 310.467 150.189C310.023 150.189 309.654 149.819 309.654 149.376C309.654 148.932 310.023 148.563 310.467 148.563C310.984 148.563 311.28 148.932 311.28 149.376Z" stroke="#2A2C30" stroke-width="1.8" stroke-miterlimit="10" stroke-linecap="round" stroke-linejoin="round"/>
<path d="M312.906 145.236C312.906 145.236 312.167 139.988 315.715 138.288C319.263 136.588 322.515 137.401 326.136 134.74C329.758 132.152 335.893 123.652 335.671 121.804C335.376 119.956 334.119 120.769 331.68 122.765C329.315 124.76 328.132 125.204 328.132 125.204C328.132 125.204 329.61 120.177 328.945 116.481C328.206 112.785 325.767 112.342 325.176 112.711C324.584 113.081 325.176 114.633 325.028 117.59C324.88 120.473 323.993 122.986 321.406 124.834C321.406 124.834 321.997 122.469 320.889 119.66C319.706 116.851 317.71 115.003 316.158 115.446C314.606 115.89 315.123 117.073 315.863 118.699C316.676 120.325 317.784 123.282 314.68 126.387C311.576 129.491 306.549 126.387 308.249 122.247C309.949 118.108 312.536 117.147 313.867 116.038C315.197 114.929 314.828 112.933 312.019 113.377C309.21 113.82 304.406 117.22 301.597 120.99C298.789 124.686 297.976 129.861 297.902 134.888C297.828 139.914 297.606 146.345 297.606 146.345C297.606 146.345 299.454 148.637 303.519 148.637C307.584 148.563 312.906 147.084 312.906 145.236Z" fill="#F4C2C9"/>
<path d="M328.132 125.278C328.132 125.278 326.875 128.752 325.102 131.56" stroke="#E26E85" stroke-width="1.8" stroke-miterlimit="10" stroke-linecap="round" stroke-linejoin="round"/>
<path d="M321.332 124.834C321.332 124.834 321.036 127.791 318.967 130.6" stroke="#E26E85" stroke-width="1.8" stroke-miterlimit="10" stroke-linecap="round" stroke-linejoin="round"/>
<path d="M303.889 219.748C303.889 219.748 302.041 216.792 306.549 212.282C311.058 207.773 320.667 208.291 320.963 212.948" stroke="#2A2C30" stroke-width="1.8" stroke-miterlimit="10" stroke-linecap="round" stroke-linejoin="round"/>
<path d="M232.119 136.07C232.119 136.07 227.98 135.848 225.393 141.466C222.806 147.084 223.545 158.616 226.354 160.39C229.162 162.164 236.702 154.55 236.702 154.55C236.702 154.55 243.058 163.125 247.641 162.756C252.223 162.386 257.989 154.181 257.619 145.162C257.249 136.144 253.554 135.109 251.558 134.887C249.636 134.518 232.119 136.07 232.119 136.07Z" fill="white"/>
<path d="M236.701 154.476C236.701 154.476 222.14 170.591 221.992 173.622C221.845 176.653 226.797 177.614 228.127 176.948C229.458 176.209 238.18 154.255 236.701 154.476Z" fill="white"/>
<path d="M236.554 156.472C236.554 156.472 239.067 174.361 240.693 177.17C242.319 179.979 247.493 175.766 246.902 173.326C246.31 170.887 239.289 156.62 236.702 154.55C234.115 152.407 236.554 156.472 236.554 156.472Z" fill="white"/>
<path d="M254.589 120.325C254.589 120.325 252.962 130.452 254.145 138.066C254.145 138.066 247.123 153.663 236.775 153.663C231.675 153.663 230.049 143.167 230.936 139.027L232.488 127.495C232.488 127.495 242.836 109.607 254.589 120.325Z" fill="#F4C2C9"/>
<path d="M246.089 131.044C241.654 133.704 236.775 135.035 231.602 134L231.01 138.361C236.628 137.252 242.319 135.626 246.089 131.044Z" fill="#E26E85"/>
<path d="M222.363 98.5182C222.363 98.5182 222.732 104.284 221.771 113.672C220.811 123.06 221.18 129.195 229.163 133.187C237.145 137.179 250.08 133.557 254.811 122.173C259.541 110.789 265.824 89.1303 248.824 85.8778C231.824 82.6253 222.141 86.6909 222.363 98.5182Z" fill="#F4C2C9"/>
<path d="M234.189 91.0525C234.189 91.0525 237.441 101.993 244.684 104.802C252.002 107.611 250.819 114.411 254.441 113.598C258.063 112.785 260.871 109.828 263.31 112.711C265.75 115.52 265.971 90.2394 253.48 85.878C240.989 81.5167 227.758 81.2949 223.841 85.2867C219.997 89.2784 221.328 102.067 221.328 102.067C221.328 102.067 229.31 100.219 234.189 91.0525Z" fill="#2A2C30"/>
<path d="M255.254 113.672C255.254 113.672 256.954 109.459 260.576 110.198C264.123 110.937 263.902 122.395 254.663 121.803" fill="#F4C2C9"/>
<path d="M229.384 109.754C229.828 110.715 229.828 111.824 229.532 112.859C229.384 113.376 229.163 113.894 228.867 114.337C228.719 114.559 228.571 114.781 228.423 115.002C228.349 115.15 228.202 115.372 228.128 115.52C227.832 116.185 227.98 116.924 228.423 117.663C228.941 118.328 229.68 118.994 230.641 119.215C230.123 119.437 229.606 119.363 229.089 119.215C228.571 119.068 228.054 118.772 227.684 118.402C227.241 118.033 226.945 117.515 226.723 116.924C226.576 116.333 226.649 115.668 226.871 115.076C227.019 114.781 227.167 114.559 227.315 114.337C227.463 114.115 227.61 113.968 227.758 113.746C228.054 113.376 228.276 113.007 228.497 112.563C228.941 111.676 229.31 110.789 229.384 109.754Z" fill="#2A2C30"/>
<path d="M234.854 124.169C234.854 124.169 238.55 125.204 240.767 121.434" stroke="#2A2C30" stroke-width="1.8" stroke-miterlimit="10" stroke-linecap="round" stroke-linejoin="round"/>
<path d="M239.584 109.754C239.584 109.754 239.88 111.381 242.689 111.676C245.054 111.972 246.163 110.05 246.163 110.05" stroke="#2A2C30" stroke-width="1.8" stroke-miterlimit="10" stroke-linecap="round" stroke-linejoin="round"/>
<path d="M228.054 108.572C228.054 108.572 225.836 110.346 224.062 108.128" stroke="#2A2C30" stroke-width="1.8" stroke-miterlimit="10" stroke-linecap="round" stroke-linejoin="round"/>
<path d="M230.123 101.549C230.271 100.588 229.162 98.962 227.684 98.5185C226.206 98.075 223.841 100.145 224.062 101.032C224.358 101.919 225.762 100.588 227.093 100.736C228.275 100.884 229.975 102.362 230.123 101.549Z" fill="#2A2C30"/>
<path d="M247.789 103.175C247.937 102.214 246.828 100.588 245.35 100.145C243.871 99.7012 241.506 101.771 241.728 102.658C242.024 103.545 243.428 102.214 244.758 102.362C246.015 102.51 247.715 103.988 247.789 103.175Z" fill="#2A2C30"/>
<path d="M260.28 113.672C259.541 113.894 258.95 114.264 258.728 114.707C258.654 114.929 258.58 115.151 258.58 115.446C258.58 115.594 258.58 115.742 258.58 115.89C258.58 116.111 258.58 116.259 258.58 116.481C258.58 116.924 258.506 117.368 258.358 117.737C258.211 118.181 257.841 118.624 257.398 118.772C256.511 119.142 255.698 118.92 254.958 118.551C255.698 118.329 256.437 118.181 256.806 117.811C257.176 117.516 257.25 116.998 257.25 116.333C257.25 116.185 257.25 116.038 257.25 115.816C257.25 115.594 257.25 115.372 257.25 115.151C257.324 114.707 257.472 114.19 257.841 113.894C258.654 113.377 259.615 113.377 260.28 113.672Z" fill="#2A2C30"/>
<path d="M222.88 115.816C226.513 115.816 229.458 112.606 229.458 108.646C229.458 104.686 226.513 101.475 222.88 101.475C219.247 101.475 216.302 104.686 216.302 108.646C216.302 112.606 219.247 115.816 222.88 115.816Z" stroke="#2A2C30" stroke-width="1.8" stroke-miterlimit="10" stroke-linecap="round" stroke-linejoin="round"/>
<path d="M249.377 111.91C250.05 107.759 247.232 103.848 243.082 103.174C238.931 102.501 235.021 105.319 234.347 109.47C233.673 113.621 236.492 117.532 240.642 118.205C244.793 118.879 248.703 116.06 249.377 111.91Z" stroke="#2A2C30" stroke-width="1.8" stroke-miterlimit="10" stroke-linecap="round" stroke-linejoin="round"/>
<path d="M229.458 109.237C229.458 109.237 230.641 107.98 234.336 109.533" stroke="#2A2C30" stroke-width="1.8" stroke-miterlimit="10" stroke-linecap="round" stroke-linejoin="round"/>
<path d="M249.489 110.715L256.732 111.381" stroke="#2A2C30" stroke-width="1.8" stroke-miterlimit="10" stroke-linecap="round" stroke-linejoin="round"/>
<path d="M258.506 120.029L255.993 124.39C255.698 124.981 256.067 125.647 256.732 125.647H261.758C262.424 125.647 262.793 124.981 262.498 124.39L259.985 120.029C259.615 119.512 258.802 119.512 258.506 120.029Z" fill="#E4C0A8"/>
<path d="M361.467 267.945L363.241 284.355C363.241 285.538 369.376 286.425 376.915 286.425C384.454 286.425 390.589 285.464 390.589 284.355L392.363 267.945H361.467Z" fill="#2A2C30"/>
<path d="M392.363 267.944C392.363 269.275 385.415 270.31 376.915 270.31C368.415 270.31 361.467 269.275 361.467 267.944C361.467 266.614 368.415 265.579 376.915 265.579C385.489 265.653 392.363 266.688 392.363 267.944Z" fill="#E4C0A8"/>
<path d="M372.776 267.945C372.776 267.945 364.497 264.692 365.384 258.335C366.345 251.904 372.406 265.136 373.958 263.14C375.511 261.144 373.515 251.46 376.915 250.573C380.389 249.76 379.428 263.288 379.428 263.288C379.428 263.288 382.902 261.587 385.045 259.074C387.189 256.561 390.293 262.179 381.497 267.945C381.424 267.945 377.654 269.867 372.776 267.945Z" fill="#A79DE4"/>
<path d="M445.728 263.657C445.728 265.874 443.954 267.648 441.736 267.648C439.519 267.648 437.745 265.874 437.745 263.657C437.745 261.439 439.519 259.665 441.736 259.665C443.88 259.665 445.728 261.513 445.728 263.657Z" fill="#E4C0A8"/>
<path d="M161.236 277.924C159.241 278.441 157.171 279.402 155.323 281.028C152.145 283.763 147.045 285.684 141.649 285.389C136.475 285.167 131.006 282.876 126.867 277.332C144.828 279.254 161.236 277.924 161.236 277.924Z" fill="white"/>
<path d="M141.575 285.464C128.567 285.686 110.384 285.464 104.766 285.39C98.2621 285.907 90.9447 283.394 86.0664 275.337C86.0664 275.337 90.8708 276.076 103.214 276.15C115.558 276.224 125.388 275.337 125.388 275.337C125.832 276.076 126.275 276.741 126.719 277.406C130.932 282.877 136.401 285.168 141.575 285.464Z" fill="#2A2C30"/>
</g>
</svg>
