<svg width="332" height="332" viewBox="0 0 332 332" fill="none" xmlns="http://www.w3.org/2000/svg">
<mask id="mask0_634_5760" style="mask-type:alpha" maskUnits="userSpaceOnUse" x="0" y="0" width="332" height="332">
<rect width="332" height="332" fill="#D9D9D9"/>
</mask>
<g mask="url(#mask0_634_5760)">
<path d="M196.586 111.391C196.586 111.391 193.717 114.26 199.046 135.983C204.374 157.706 216.465 174.306 216.465 174.306C216.465 174.306 232.04 161.19 227.327 138.647C222.818 116.104 196.586 111.391 196.586 111.391Z" fill="#2A2C30"/>
<path d="M199.662 175.33C199.662 175.33 195.563 176.56 185.931 186.602C176.299 196.644 162.158 201.767 145.354 209.35C128.549 216.932 120.352 181.683 124.655 163.854C128.754 146.024 147.198 133.728 147.198 133.728L183.062 138.647C183.062 138.647 194.948 124.506 199.662 133.728C204.17 142.95 203.76 163.649 199.662 175.33Z" fill="#F4C2C9"/>
<path d="M168.92 240.705L46.7785 268.781C41.4502 270.011 36.1219 266.732 34.8923 261.403L0.258126 111.391C-0.971486 106.062 2.30743 100.734 7.63575 99.5044L129.777 71.4283C135.106 70.1987 140.434 73.4777 141.664 78.806L176.093 228.819C177.527 234.147 174.248 239.475 168.92 240.705Z" fill="#2A2C30"/>
<path d="M117.481 114.465L37.966 132.704C35.3018 133.319 32.8425 131.679 32.2277 129.015C31.6129 126.351 33.2525 123.892 35.9166 123.277L115.432 105.038C118.096 104.423 120.555 106.062 121.17 108.726C121.58 111.186 119.94 113.85 117.481 114.465Z" fill="#E4C0A8"/>
<path d="M37.7612 153.812L126.703 133.319" stroke="#63737A" stroke-width="1.8" stroke-miterlimit="10" stroke-linecap="round" stroke-linejoin="round"/>
<path d="M41.2451 168.772L130.187 148.279" stroke="#63737A" stroke-width="1.8" stroke-miterlimit="10" stroke-linecap="round" stroke-linejoin="round"/>
<path d="M94.3245 227.794L61.5348 235.376C58.8707 235.991 56.4113 234.352 55.7965 231.687L48.214 198.898C47.5992 196.234 49.2387 193.774 51.9028 193.16L84.6925 185.577C87.3567 184.962 89.8159 186.602 90.4307 189.266L98.0133 222.055C98.4232 224.515 96.7837 227.179 94.3245 227.794Z" fill="#E4C0A8"/>
<path d="M102.521 181.273L135.925 173.486" stroke="#63737A" stroke-width="1.8" stroke-miterlimit="10" stroke-linecap="round" stroke-linejoin="round"/>
<path d="M106.209 197.463L139.819 189.881" stroke="#63737A" stroke-width="1.8" stroke-miterlimit="10" stroke-linecap="round" stroke-linejoin="round"/>
<path d="M109.898 213.858L130.187 209.145" stroke="#63737A" stroke-width="1.8" stroke-miterlimit="10" stroke-linecap="round" stroke-linejoin="round"/>
<path d="M91.6581 84.9539L48.2119 94.9958C45.1378 95.6106 42.4737 92.9464 43.0885 89.8724L43.4983 87.8231C43.9081 86.1836 45.1378 84.954 46.7773 84.5441L88.3792 74.9121C90.0187 74.5022 91.6581 75.1171 92.6828 76.3467L93.9124 77.9861C95.9618 80.6503 94.7321 84.3391 91.6581 84.9539Z" fill="#A79DE4"/>
<path d="M185.93 126.146C185.93 126.146 180.806 128.81 170.969 126.146C161.132 123.482 159.493 121.023 149.246 118.359C138.999 115.695 124.859 118.564 122.4 122.867C119.94 127.171 126.498 129.835 135.311 130.86C144.123 131.884 148.221 148.689 162.362 155.042C185.93 165.494 206.833 133.524 185.93 126.146Z" fill="#F4C2C9"/>
<path d="M122.4 122.867C119.94 127.171 126.498 129.835 135.311 130.86C144.123 131.884 148.221 148.689 162.362 155.042C167.28 157.296 171.994 157.501 176.298 156.682" stroke="#E26E85" stroke-width="1.8" stroke-miterlimit="10" stroke-linecap="round" stroke-linejoin="round"/>
<path d="M201.505 116.719C201.505 116.719 190.644 123.687 185.93 126.146C185.93 126.146 195.152 135.163 198.841 151.353C202.53 167.543 199.661 175.33 199.661 175.33C199.661 175.33 211.752 174.101 217.695 169.797C217.695 169.797 223.433 160.37 218.72 141.926C214.006 123.482 201.505 116.719 201.505 116.719Z" fill="white"/>
<path d="M330.204 91.7169C322.007 64.6654 290.037 53.5989 266.879 69.7888C253.354 79.2158 239.213 88.4379 227.942 94.586C196.586 111.596 196.586 111.596 196.586 111.596C196.586 111.596 214.416 129.22 217.08 148.689C219.744 168.158 216.465 174.511 216.465 174.511C216.465 174.511 265.445 162.42 308.686 141.311C326.925 132.089 336.147 111.186 330.204 91.7169Z" fill="#A79DE4"/>
<path d="M212.367 159.55C212.367 158.116 211.342 157.091 209.907 157.091C208.473 157.091 207.448 158.116 207.448 159.55C207.448 160.985 208.473 162.01 209.907 162.01C211.342 162.01 212.367 160.985 212.367 159.55Z" fill="#2A2C30"/>
</g>
</svg>
