<svg width="332" height="332" viewBox="0 0 332 332" fill="none" xmlns="http://www.w3.org/2000/svg">
<mask id="mask0_634_5483" style="mask-type:alpha" maskUnits="userSpaceOnUse" x="0" y="0" width="332" height="332">
<rect width="332" height="332" fill="#D9D9D9"/>
</mask>
<g mask="url(#mask0_634_5483)">
<path d="M279.183 263.829L26.3567 302.127C20.6719 303.025 15.5854 298.836 15.1366 293.151L0.0268662 65.4579C-0.421938 59.1746 4.81412 53.9386 11.0974 54.3874L264.373 70.5443C269.16 70.8435 273.049 74.5836 273.498 79.3708L288.01 252.759C288.458 257.995 284.569 262.932 279.183 263.829Z" fill="#63737A"/>
<path d="M286.065 263.53L32.0414 301.978C26.3566 302.875 21.2702 298.687 20.8214 293.002L5.56201 64.2612C5.11321 57.9779 10.3493 52.5923 16.7821 53.0411L271.105 69.198C275.892 69.4972 279.781 73.2372 280.23 78.1741L294.891 252.31C295.49 257.845 291.6 262.782 286.065 263.53Z" fill="#2A2C30"/>
<path d="M120.456 185.139L48.947 189.029C46.703 189.178 44.7582 187.383 44.6086 185.139L40.4197 124.7C40.2701 122.306 42.215 120.212 44.6086 120.212L116.118 120.661C118.362 120.661 120.157 122.306 120.307 124.55L124.496 180.651C124.645 183.045 122.85 184.989 120.456 185.139Z" fill="#A79DE4"/>
<path d="M197.351 161.801L137.51 163.896C135.266 164.045 133.321 162.25 133.172 160.006L130.629 125.149C130.479 122.755 132.424 120.661 134.818 120.661L194.658 121.11C196.752 121.11 198.548 122.755 198.847 124.999L201.39 157.313C201.54 159.707 199.745 161.801 197.351 161.801Z" fill="#E4C0A8"/>
<path d="M265.12 159.557L214.705 161.352C212.461 161.502 210.516 159.707 210.366 157.463L207.823 125.897C207.673 123.503 209.618 121.409 212.012 121.409L262.428 121.708C264.522 121.708 266.317 123.354 266.616 125.598L269.01 155.069C269.309 157.313 267.514 159.408 265.12 159.557Z" fill="#F4C2C9"/>
<path d="M124.944 243.783L53.4349 251.562C51.0413 251.861 48.9468 250.066 48.7972 247.672L46.1044 208.626C45.9548 206.382 47.75 204.288 49.994 204.138L121.653 199.351C123.897 199.202 125.992 200.847 126.141 203.241L128.834 239.295C128.834 241.539 127.188 243.484 124.944 243.783Z" stroke="#63737A" stroke-width="1.8" stroke-miterlimit="10" stroke-linecap="round" stroke-linejoin="round"/>
<path d="M204.083 242.287L144.392 249.318C141.998 249.617 139.904 247.822 139.754 245.428L134.967 180.95C134.818 178.557 136.613 176.612 138.857 176.462L198.697 173.62C200.941 173.47 202.886 175.265 203.036 177.509L207.823 237.799C207.973 240.043 206.327 241.988 204.083 242.287Z" fill="#F4C2C9"/>
<path d="M191.666 184.84L148.731 187.383C147.683 187.383 146.935 188.281 147.085 189.328L149.03 215.957C149.179 217.004 149.927 217.752 150.975 217.603L193.91 213.862C194.957 213.713 195.705 212.965 195.556 211.918L193.611 186.485C193.461 185.588 192.564 184.84 191.666 184.84Z" fill="#A79DE4"/>
<path d="M271.104 227.476L220.689 233.011C218.295 233.311 216.2 231.515 216.051 229.122L212.012 177.21C211.862 174.816 213.657 172.872 215.901 172.722L266.317 170.328C268.561 170.179 270.506 171.974 270.655 174.218L274.695 222.988C274.994 225.232 273.348 227.177 271.104 227.476Z" fill="#E4C0A8"/>
<path d="M88.4414 219.098L89.339 230.169" stroke="#63737A" stroke-width="1.8" stroke-miterlimit="10" stroke-linecap="round" stroke-linejoin="round"/>
<path d="M83.6543 225.082L94.1264 224.185" stroke="#63737A" stroke-width="1.8" stroke-miterlimit="10" stroke-linecap="round" stroke-linejoin="round"/>
<path d="M160.101 231.366C159.802 228.374 157.558 225.98 154.865 226.279C152.172 226.579 150.077 229.271 150.377 232.413C150.676 235.555 153.069 237.799 155.762 237.499C158.306 237.051 160.25 234.358 160.101 231.366Z" fill="#2A2C30"/>
<path d="M168.777 230.468L196.752 227.626" stroke="#2A2C30" stroke-width="1.8" stroke-miterlimit="10" stroke-linecap="round" stroke-linejoin="round"/>
<path d="M231.012 186.785C230.713 183.942 228.768 181.848 226.374 181.848C223.981 181.997 222.335 184.391 222.485 187.233C222.784 190.076 224.729 192.32 227.122 192.17C229.665 192.021 231.311 189.627 231.012 186.785Z" fill="#A79DE4"/>
<path d="M238.641 186.336L262.727 184.84" stroke="#2A2C30" stroke-width="1.8" stroke-miterlimit="10" stroke-linecap="round" stroke-linejoin="round"/>
<path d="M232.359 202.792C232.059 199.95 230.114 197.855 227.721 198.005C225.327 198.154 223.682 200.698 223.831 203.54C224.13 206.382 226.225 208.626 228.469 208.327C230.862 208.028 232.658 205.634 232.359 202.792Z" fill="#A79DE4"/>
<path d="M239.838 202.193L264.074 200.249" stroke="#2A2C30" stroke-width="1.8" stroke-miterlimit="10" stroke-linecap="round" stroke-linejoin="round"/>
<path d="M233.704 218.799C233.405 215.957 231.46 213.862 229.067 214.012C226.673 214.162 225.027 216.705 225.177 219.547C225.476 222.39 227.571 224.484 229.815 224.334C232.208 224.035 233.854 221.642 233.704 218.799Z" fill="#A79DE4"/>
<path d="M241.185 218.051L265.271 215.657" stroke="#2A2C30" stroke-width="1.8" stroke-miterlimit="10" stroke-linecap="round" stroke-linejoin="round"/>
<path d="M65.4031 144.447L55.679 144.597C54.7814 144.597 54.0334 143.849 53.8837 142.951L53.1357 132.779C53.1357 131.731 53.8838 130.983 54.931 130.983H64.6551C65.5527 130.983 66.3007 131.731 66.4503 132.629L67.1983 142.652C67.0487 143.55 66.3007 144.447 65.4031 144.447Z" fill="#E4C0A8"/>
<path d="M75.8755 130.983L109.536 130.834" stroke="#2A2C30" stroke-width="1.8" stroke-miterlimit="10" stroke-linecap="round" stroke-linejoin="round"/>
<path d="M76.4736 139.66L110.134 139.361" stroke="#2A2C30" stroke-width="1.8" stroke-miterlimit="10" stroke-linecap="round" stroke-linejoin="round"/>
<path d="M226.822 142.054L219.192 142.203C218.743 142.203 218.295 141.755 218.145 141.306L217.397 131.582C217.397 130.983 217.846 130.534 218.444 130.534H226.074C226.523 130.534 226.971 130.983 227.121 131.432L227.869 141.007C227.869 141.455 227.42 142.054 226.822 142.054Z" fill="#2A2C30"/>
<path d="M234.003 130.385H258.987" stroke="#2A2C30" stroke-width="1.8" stroke-miterlimit="10" stroke-linecap="round" stroke-linejoin="round"/>
<path d="M234.751 138.015L259.585 137.715" stroke="#2A2C30" stroke-width="1.8" stroke-miterlimit="10" stroke-linecap="round" stroke-linejoin="round"/>
<path d="M218.893 150.431L260.482 149.384" stroke="#2A2C30" stroke-width="1.8" stroke-miterlimit="10" stroke-linecap="round" stroke-linejoin="round"/>
<path d="M67.0486 167.636L57.3245 167.935C56.4269 167.935 55.5293 167.187 55.5293 166.289L54.7812 156.117C54.7812 155.069 55.5293 154.321 56.4269 154.321L66.151 154.022C67.0486 154.022 67.7966 154.77 67.9462 155.668L68.6942 165.691C68.6942 166.738 67.9462 167.636 67.0486 167.636Z" fill="#E4C0A8"/>
<path d="M77.521 153.872L111.181 152.975" stroke="#2A2C30" stroke-width="1.8" stroke-miterlimit="10" stroke-linecap="round" stroke-linejoin="round"/>
<path d="M78.1191 162.699L111.779 161.652" stroke="#2A2C30" stroke-width="1.8" stroke-miterlimit="10" stroke-linecap="round" stroke-linejoin="round"/>
<path d="M91.5827 95.2286L41.167 93.7325C39.5214 93.7325 38.175 92.3861 38.0253 90.7405L37.427 82.8116C37.2774 80.8668 38.923 79.2212 40.7182 79.3708L91.1338 81.4652C92.7795 81.4652 94.1259 82.8117 94.2755 84.4573L94.8739 91.7877C95.0235 93.5829 93.5275 95.2286 91.5827 95.2286Z" fill="#A79DE4"/>
<path d="M142.597 130.684L190.17 130.535" stroke="#2A2C30" stroke-width="1.8" stroke-miterlimit="10" stroke-linecap="round" stroke-linejoin="round"/>
<path d="M143.195 139.062L190.768 138.463" stroke="#2A2C30" stroke-width="1.8" stroke-miterlimit="10" stroke-linecap="round" stroke-linejoin="round"/>
<path d="M144.093 152.227L169.675 151.628" stroke="#2A2C30" stroke-width="1.8" stroke-miterlimit="10" stroke-linecap="round" stroke-linejoin="round"/>
<path d="M263.624 94.4805C263.475 92.2364 261.829 90.2916 259.884 90.142C258.089 89.9924 256.593 91.9372 256.892 94.1813C257.042 96.5749 258.688 98.5197 260.632 98.5197C262.428 98.6693 263.774 96.7245 263.624 94.4805Z" fill="#63737A"/>
<path d="M250.31 94.0318C250.161 91.6382 248.366 89.6934 246.57 89.6934C244.626 89.5438 243.279 91.4886 243.429 93.8822C243.578 96.2758 245.374 98.2206 247.318 98.2206C249.114 98.2206 250.46 96.2758 250.31 94.0318Z" fill="#63737A"/>
<path d="M236.546 93.4333C236.397 91.0397 234.601 89.0949 232.656 88.9453C230.712 88.7957 229.216 90.7405 229.365 93.1341C229.515 95.5277 231.31 97.4725 233.255 97.6221C235.349 97.7718 236.696 95.827 236.546 93.4333Z" fill="#63737A"/>
<path d="M324.362 114.078L257.939 112.882C255.247 112.882 253.003 110.787 252.853 108.094L246.869 34.9393C246.719 32.3961 248.814 30.4513 251.207 30.6009L317.93 37.6321C320.473 37.9314 322.418 39.8762 322.567 42.4194L328.402 109.59C328.551 112.134 326.756 114.078 324.362 114.078Z" fill="#F8AB5D"/>
<path d="M327.952 112.882L261.529 111.685C258.836 111.685 256.592 109.59 256.443 106.897L250.459 33.7424C250.309 31.1992 252.404 29.2544 254.797 29.404L321.519 36.4352C324.063 36.7344 326.007 38.6792 326.157 41.2225L331.991 108.394C332.141 110.937 330.196 112.882 327.952 112.882Z" fill="#E4C0A8"/>
<path d="M279.482 43.0176L314.639 46.3089" stroke="#63737A" stroke-width="1.8" stroke-miterlimit="10" stroke-linecap="round" stroke-linejoin="round"/>
<path d="M280.081 50.1986L315.237 53.1907" stroke="#63737A" stroke-width="1.8" stroke-miterlimit="10" stroke-linecap="round" stroke-linejoin="round"/>
<path d="M281.427 66.6548L316.733 69.0485" stroke="#63737A" stroke-width="1.8" stroke-miterlimit="10" stroke-linecap="round" stroke-linejoin="round"/>
<path d="M282.025 73.6861L317.182 75.7805" stroke="#63737A" stroke-width="1.8" stroke-miterlimit="10" stroke-linecap="round" stroke-linejoin="round"/>
<path d="M283.522 90.2917L318.679 91.7877" stroke="#63737A" stroke-width="1.8" stroke-miterlimit="10" stroke-linecap="round" stroke-linejoin="round"/>
<path d="M284.121 97.3229L319.277 98.5197" stroke="#63737A" stroke-width="1.8" stroke-miterlimit="10" stroke-linecap="round" stroke-linejoin="round"/>
<path d="M267.364 47.0568L269.159 49.3008L271.702 45.86" stroke="#A79DE4" stroke-width="1.8" stroke-miterlimit="10" stroke-linecap="round" stroke-linejoin="round"/>
<path d="M269.309 70.9931L271.104 73.0876L273.797 69.6467" stroke="#A79DE4" stroke-width="1.8" stroke-miterlimit="10" stroke-linecap="round" stroke-linejoin="round"/>
<path d="M271.254 94.4806L273.199 96.575L275.742 92.9845" stroke="#A79DE4" stroke-width="1.8" stroke-miterlimit="10" stroke-linecap="round" stroke-linejoin="round"/>
</g>
</svg>
